<svg id="svg" version="1.1" xmlns="http://www.w3.org/2000/svg" xmlns:xlink="http://www.w3.org/1999/xlink" width="400"
     height="409.04761904761904" viewBox="0, 0, 400,409.04761904761904">
    <g id="svgg">
        <path id="path0"
              d="M258.333 93.106 C 256.500 94.244,251.486 97.279,247.191 99.850 C 242.897 102.420,238.684 104.952,237.829 105.476 C 236.975 106.000,233.846 107.881,230.876 109.656 C 227.906 111.431,222.506 114.689,218.875 116.896 C 215.245 119.103,212.138 120.972,211.971 121.050 C 211.710 121.170,199.745 128.340,195.048 131.190 C 194.184 131.714,191.841 133.107,189.840 134.286 C 186.313 136.363,185.599 137.313,186.722 138.436 C 187.014 138.728,187.496 139.395,187.793 139.917 C 188.253 140.726,189.271 142.430,193.956 150.230 C 194.269 150.750,195.075 152.035,195.749 153.087 C 196.424 154.139,198.459 157.537,200.273 160.638 C 202.087 163.739,204.000 166.970,204.524 167.820 C 206.405 170.869,210.741 178.196,212.101 180.622 C 212.863 181.982,213.625 183.202,213.794 183.333 C 213.963 183.464,215.589 186.099,217.408 189.187 C 222.534 197.895,221.871 196.783,227.143 205.514 C 228.845 208.334,230.565 211.193,230.964 211.868 C 231.364 212.543,232.033 213.631,232.453 214.286 C 233.065 215.242,237.398 222.511,239.768 226.557 C 240.033 227.010,240.890 228.448,241.673 229.752 C 242.455 231.056,243.310 232.500,243.571 232.960 C 244.157 233.988,250.356 244.327,251.667 246.460 C 252.746 248.216,256.970 255.255,263.649 266.429 C 266.154 270.619,268.555 274.618,268.983 275.316 C 269.411 276.013,271.262 279.090,273.095 282.152 C 274.929 285.214,276.804 288.340,277.262 289.098 C 277.720 289.856,278.470 291.108,278.929 291.880 C 280.333 294.245,287.798 306.701,288.810 308.367 C 289.333 309.230,290.902 311.879,292.295 314.254 L 294.828 318.571 346.953 318.571 L 399.078 318.571 397.799 316.310 C 397.095 315.065,396.279 313.619,395.985 313.095 C 395.692 312.571,394.817 311.179,394.041 310.000 C 393.265 308.821,392.361 307.321,392.032 306.667 C 391.703 306.012,390.892 304.619,390.230 303.571 C 389.569 302.524,388.887 301.345,388.715 300.952 C 388.543 300.560,388.267 300.131,388.101 300.000 C 387.935 299.869,386.312 297.226,384.495 294.127 C 382.677 291.027,380.869 287.994,380.476 287.387 C 380.083 286.779,378.954 284.922,377.966 283.260 C 376.978 281.598,375.969 279.917,375.723 279.524 C 375.084 278.504,371.397 272.323,370.751 271.190 C 370.453 270.667,368.822 267.921,367.128 265.089 C 365.434 262.257,363.405 258.803,362.619 257.413 C 361.833 256.023,360.957 254.590,360.672 254.229 C 360.386 253.867,357.922 249.822,355.196 245.239 C 352.469 240.655,350.024 236.554,349.762 236.124 C 349.500 235.694,348.429 233.910,347.381 232.160 C 344.814 227.872,344.685 227.662,343.279 225.476 C 342.606 224.429,341.967 223.357,341.861 223.095 C 341.700 222.701,339.218 218.515,334.709 211.034 C 334.288 210.334,333.538 209.084,333.043 208.256 C 328.376 200.443,325.297 195.324,324.395 193.877 C 323.800 192.923,323.170 191.821,322.996 191.429 C 322.821 191.036,322.009 189.750,321.190 188.571 C 320.372 187.393,319.560 186.107,319.385 185.714 C 319.211 185.321,318.581 184.220,317.986 183.266 C 317.391 182.312,315.418 178.991,313.601 175.885 C 311.784 172.779,309.731 169.381,309.039 168.333 C 308.346 167.286,307.634 166.107,307.456 165.714 C 307.278 165.321,305.433 162.214,303.356 158.810 C 301.280 155.405,297.800 149.653,295.624 146.027 C 293.447 142.402,291.322 138.866,290.901 138.170 C 290.480 137.474,289.683 136.107,289.131 135.133 C 288.579 134.158,287.607 132.551,286.972 131.561 C 286.010 130.062,283.358 125.628,279.513 119.090 C 279.114 118.412,277.828 116.288,276.656 114.370 C 275.483 112.451,274.149 110.255,273.690 109.489 C 272.571 107.617,271.735 106.229,268.095 100.200 C 266.393 97.380,264.653 94.470,264.229 93.732 C 262.334 90.434,262.593 90.461,258.333 93.106 M165.476 174.603 C 163.119 176.058,160.440 177.683,159.524 178.215 C 158.607 178.747,157.214 179.575,156.429 180.054 C 155.643 180.534,154.357 181.283,153.571 181.720 C 152.786 182.157,152.036 182.649,151.905 182.814 C 151.774 182.979,151.131 183.380,150.476 183.705 C 149.821 184.030,148.702 184.669,147.989 185.124 C 147.275 185.580,143.655 187.774,139.943 190.000 C 136.232 192.226,132.489 194.476,131.627 195.000 C 130.765 195.524,127.354 197.560,124.048 199.524 C 120.741 201.488,117.339 203.524,116.488 204.048 C 114.084 205.526,104.839 211.134,103.919 211.672 C 103.466 211.936,101.534 213.115,99.627 214.291 C 97.719 215.467,95.737 216.640,95.222 216.899 C 94.707 217.157,94.286 217.678,94.286 218.056 C 94.286 218.689,99.829 228.504,100.493 229.048 C 100.653 229.179,100.924 229.607,101.096 230.000 C 101.268 230.393,101.937 231.571,102.584 232.619 C 103.230 233.667,104.574 235.891,105.570 237.563 C 106.566 239.234,107.756 241.216,108.214 241.968 C 110.040 244.959,110.843 246.309,114.026 251.735 C 115.847 254.840,117.470 257.488,117.632 257.619 C 117.794 257.750,118.067 258.179,118.239 258.571 C 118.411 258.964,119.038 260.077,119.633 261.045 C 120.228 262.013,122.536 265.846,124.762 269.563 C 126.988 273.281,129.238 277.019,129.762 277.870 C 130.286 278.721,131.893 281.394,133.333 283.808 C 134.774 286.223,136.327 288.818,136.786 289.575 C 138.223 291.951,139.166 293.529,143.571 300.937 C 145.929 304.901,148.179 308.648,148.571 309.264 C 149.678 310.999,153.041 316.658,153.565 317.667 C 153.997 318.498,258.095 319.215,258.095 318.388 C 258.095 318.064,256.968 316.099,253.083 309.648 C 250.994 306.181,249.066 302.966,248.798 302.505 C 248.530 302.044,246.280 298.276,243.798 294.132 C 241.316 289.989,238.814 285.810,238.237 284.847 C 237.660 283.883,237.035 282.774,236.847 282.381 C 236.660 281.988,235.937 280.810,235.242 279.762 C 234.546 278.714,232.530 275.393,230.760 272.381 C 228.991 269.369,226.281 264.869,224.738 262.381 C 223.195 259.893,221.716 257.429,221.451 256.905 C 221.186 256.381,220.483 255.168,219.889 254.209 C 219.295 253.250,217.323 249.929,215.505 246.828 C 213.688 243.727,212.065 241.083,211.899 240.952 C 211.733 240.821,211.457 240.393,211.285 240.000 C 211.113 239.607,210.486 238.497,209.891 237.532 C 209.296 236.568,207.631 233.812,206.190 231.408 C 204.750 229.004,203.250 226.539,202.857 225.930 C 202.464 225.321,200.536 222.109,198.571 218.793 C 196.607 215.476,194.679 212.259,194.286 211.645 C 193.893 211.030,191.245 206.604,188.402 201.811 C 185.558 197.017,181.655 190.524,179.729 187.381 C 177.802 184.238,175.950 181.199,175.613 180.627 C 171.470 173.600,170.399 171.909,170.106 171.931 C 169.917 171.946,167.833 173.148,165.476 174.603 M74.524 255.000 C 72.690 256.141,70.655 257.375,70.000 257.743 C 69.051 258.276,56.653 265.702,50.409 269.478 C 49.717 269.896,47.176 271.417,44.762 272.857 C 42.348 274.298,39.753 275.851,38.996 276.310 C 35.885 278.193,34.619 278.946,29.687 281.853 C 26.847 283.526,24.202 285.163,23.810 285.490 C 23.417 285.817,22.024 286.657,20.714 287.358 C 19.405 288.059,16.298 289.888,13.810 291.423 C 11.321 292.957,7.625 295.199,5.595 296.405 C 1.415 298.888,1.444 298.827,3.202 301.557 C 3.916 302.665,4.740 304.000,5.033 304.524 C 5.327 305.048,5.975 306.156,6.474 306.987 C 6.973 307.817,8.724 310.764,10.365 313.534 L 13.349 318.571 65.246 318.571 C 106.447 318.571,117.142 318.449,117.141 317.976 C 117.140 317.649,116.666 316.631,116.087 315.714 C 114.915 313.857,115.052 314.082,111.429 308.070 C 109.988 305.680,108.591 303.369,108.325 302.934 C 107.783 302.051,96.715 283.561,95.958 282.277 C 93.775 278.569,88.191 269.248,87.619 268.357 C 87.226 267.745,85.726 265.275,84.286 262.868 C 80.259 256.140,78.165 252.832,77.970 252.892 C 77.908 252.911,76.357 253.860,74.524 255.000 "
              stroke="none" fill="#4F5665" fill-rule="evenodd"></path>
    </g>
</svg>
