<svg width="424" height="317" viewBox="0 0 424 317" fill="none" xmlns="http://www.w3.org/2000/svg">
  <path d="M294.649 195.659L254.927 172.341L223.726 218.773C241.954 233.985 272.577 245.048 288.401 241.67C320.875 234.737 386.498 142.534 395.604 135.514C426.602 111.617 436.678 102.548 397.89 121.117C360.909 138.821 380.496 121.117 371.436 121.117C360.551 121.877 364.158 131.538 368.198 138.46L294.649 195.659Z" fill="url(#paint0_linear_0_1)"/>
  <path d="M69.2672 160.334C80.474 152.552 124.756 138.534 144.204 132.497L164.779 134.742C177.743 137.956 205.549 143.435 218.34 148.621C231.131 153.806 254.343 170.343 275.998 184.133L270.885 201.841C266.293 217.744 254.15 230.356 238.432 235.547C234.387 261.269 230.899 303.086 231.475 316.05L80.9892 315.933L74.0995 252.285L43.1107 255.605L16.9344 235.547C49.7113 178.853 55.2586 170.062 69.2672 160.334Z" fill="url(#paint1_linear_0_1)"/>
  <path d="M26.2157 306.588C-21.4648 300.543 9.54635 252.218 18 236.259C28.2248 244.866 40.8511 250.117 54.164 251.3L70.595 252.759L63.8666 268.281L136.506 285.287L146.697 313.558C139.438 312.322 85.5088 314.107 26.2157 306.588Z" fill="url(#paint2_linear_0_1)"/>
  <path d="M149.275 5.62333C151.622 1.37965 158.352 -4.56151 166.499 5.62333H149.275Z" fill="#30235B"/>
  <ellipse cx="153.187" cy="151.006" rx="25.9725" ry="18.5082" fill="#CF0606"/>
  <path d="M131.906 150.011L135.536 113.862H170.881L174.941 150.011C173.522 154.268 166.822 162.904 154.416 162.904C138.603 162.904 132.919 154.268 131.906 150.011Z" fill="url(#paint3_linear_0_1)"/>
  <mask id="mask0_0_1" style="mask-type:alpha" maskUnits="userSpaceOnUse" x="131" y="113" width="44" height="50">
    <path d="M131.906 150.011L135.536 113.862H170.881L174.949 150.084C173.53 154.341 166.807 162.905 154.4 162.905C138.588 162.905 132.919 154.268 131.906 150.011Z" fill="url(#paint4_linear_0_1)"/>
  </mask>
  <g mask="url(#mask0_0_1)">
    <path opacity="0.1" d="M183.619 115.246C151.66 154.788 133.801 122.994 124.576 118.225L130.915 91.4927L168.757 86.9742L183.619 115.246Z" fill="black"/>
  </g>
  <path d="M152.574 128.374C114.457 128.374 107.902 73.6594 119.679 48.633C146.177 16.2458 179.301 35.1383 192.55 48.633C195.74 69.4884 199.257 128.374 152.574 128.374Z" fill="url(#paint5_linear_0_1)"/>
  <path d="M193.201 86.5163L185.733 81.0147L186.888 76.9193L195.418 82.5436L193.201 86.5163Z" fill="#111111"/>
  <path d="M115.396 84.921L122.864 79.4194L121.709 75.324L113.179 80.9482L115.396 84.921Z" fill="#111111"/>
  <path d="M122.23 51.9214C149.253 69.5278 179.212 59.2574 190.813 51.9214C188.37 59.6254 191.831 74.4339 193.866 80.8752C211.45 57.9767 205.701 45.6116 200.629 42.2913C199.784 30.8788 189.409 2.34463 154.58 3.69723C119.751 5.04982 112.992 29.7516 113.979 38.9098C100.791 56.8317 108.637 74.3541 114.998 80.8752C122.23 66.835 122.065 56.9856 122.23 51.9214Z" fill="#30235B"/>
  <path opacity="0.5" d="M136.149 92.9073C130.757 92.9073 128.041 88.6574 127.351 86.7598C126.557 85.1726 125.931 81.0377 127.81 77.7533C130.199 73.577 141.428 72.4124 145.362 78.3124C149.295 84.2125 145.362 92.9073 136.149 92.9073Z" fill="#E6FCFF"/>
  <path opacity="0.5" d="M171.88 92.9073C177.273 92.9073 179.988 88.6574 180.678 86.7598C181.472 85.1726 182.099 81.0377 180.22 77.7533C177.831 73.577 166.601 72.4124 162.668 78.3124C158.734 84.2125 162.668 92.9073 171.88 92.9073Z" fill="#E6FCFF"/>
  <path fill-rule="evenodd" clip-rule="evenodd" d="M148.147 77.0104C139.353 69.287 131.409 72.5549 126.702 74.4912C126.179 74.7065 125.695 74.9054 125.255 75.0708L122.308 75.0763C121.753 75.0774 121.305 75.5302 121.31 76.0852L121.332 78.5628C121.337 79.1116 121.783 79.5539 122.332 79.5539L124.463 79.5539C122.919 92.8048 132.691 96.3509 140.506 93.9624C147.474 91.8329 149.339 85.8078 149.712 82.0279C151.202 78.7254 157.736 80.2512 157.995 81.9545C158.001 81.9941 158.008 82.0387 158.015 82.0881L158.015 82.0884C158.322 84.1624 159.867 94.6105 171.63 94.6252C181.265 94.6373 183.878 86.0296 183.98 81.7242L186.475 81.7021C187.027 81.6972 187.471 81.2455 187.466 80.6932L187.439 77.6622C187.434 77.1099 186.982 76.6662 186.43 76.6711L183.936 76.6932C177.66 70.335 164.178 70.9305 159.429 76.9104C154.19 75.7021 149.725 76.4736 148.147 77.0104ZM136.149 92.9073C130.757 92.9073 128.041 88.6574 127.351 86.7598C126.558 85.1726 125.931 81.0376 127.81 77.7532C130.199 73.577 141.428 72.4124 145.362 78.3124C149.295 84.2124 145.362 92.9073 136.149 92.9073ZM180.679 86.7597C179.989 88.6574 177.274 92.9072 171.881 92.9072C162.669 92.9072 158.736 84.2124 162.669 78.3124C166.602 72.4123 177.832 73.577 180.221 77.7532C182.1 81.0376 181.473 85.1726 180.679 86.7597Z" fill="#111111"/>
  <path d="M77.8013 310.687C77.8013 310.132 78.2511 309.683 78.8059 309.683H233.198C234.169 309.683 234.956 310.47 234.956 311.441V311.441C234.956 314.353 232.595 316.715 229.682 316.715H83.8288C80.4999 316.715 77.8013 314.016 77.8013 310.687V310.687Z" fill="#B4B4B4"/>
  <rect x="77.8013" y="207.147" width="157.155" height="105.147" rx="2.94666" fill="url(#paint6_linear_0_1)"/>
  <circle cx="156.378" cy="259.721" r="11.1765" fill="white"/>
  <defs>
    <linearGradient id="paint0_linear_0_1" x1="304.781" y1="60.3213" x2="307.428" y2="236.189" gradientUnits="userSpaceOnUse">
      <stop stop-color="#FFEFE0"/>
      <stop offset="1" stop-color="#FFBE99"/>
    </linearGradient>
    <linearGradient id="paint1_linear_0_1" x1="156.275" y1="102.208" x2="143.875" y2="350.546" gradientUnits="userSpaceOnUse">
      <stop stop-color="#FF9F81"/>
      <stop offset="1" stop-color="#F53838"/>
    </linearGradient>
    <linearGradient id="paint2_linear_0_1" x1="141.21" y1="189.483" x2="22.538" y2="246.358" gradientUnits="userSpaceOnUse">
      <stop offset="0.0677966" stop-color="#FFEFE0"/>
      <stop offset="1" stop-color="#FFBE99"/>
    </linearGradient>
    <linearGradient id="paint3_linear_0_1" x1="152.204" y1="74.9754" x2="154.284" y2="141.361" gradientUnits="userSpaceOnUse">
      <stop stop-color="#FFEFE0"/>
      <stop offset="1" stop-color="#FFBE99"/>
    </linearGradient>
    <linearGradient id="paint4_linear_0_1" x1="152.204" y1="74.9754" x2="149.29" y2="150.606" gradientUnits="userSpaceOnUse">
      <stop stop-color="#FFEFE0"/>
      <stop offset="1" stop-color="#FFBE99"/>
    </linearGradient>
    <linearGradient id="paint5_linear_0_1" x1="155.661" y1="39.5831" x2="155.661" y2="119.302" gradientUnits="userSpaceOnUse">
      <stop stop-color="#FFEFE0"/>
      <stop offset="1" stop-color="#FFBE99"/>
    </linearGradient>
    <linearGradient id="paint6_linear_0_1" x1="188.829" y1="128.235" x2="130.724" y2="336.729" gradientUnits="userSpaceOnUse">
      <stop offset="0.0171777" stop-color="white"/>
      <stop offset="1" stop-color="#D7D7D7"/>
    </linearGradient>
  </defs>
</svg>
