<svg id="svg" version="1.1" xmlns="http://www.w3.org/2000/svg" xmlns:xlink="http://www.w3.org/1999/xlink" width="400"
     height="225" viewBox="0, 0, 400,225">
    <g id="svgg">
        <path id="path0"
              d="M31.771 81.946 C 19.744 82.846,9.209 91.416,5.795 103.077 C 3.833 109.782,4.206 117.984,6.773 124.567 C 15.515 146.989,47.280 149.800,59.332 129.219 C 59.919 128.215,60.935 126.024,60.937 125.755 C 60.937 125.654,60.182 125.625,57.507 125.625 L 54.076 125.625 53.545 126.505 C 45.838 139.264,26.678 140.398,17.058 128.664 C 9.767 119.771,9.764 105.563,17.052 96.509 C 26.636 84.604,45.730 85.769,53.500 98.735 L 54.008 99.583 57.525 99.583 C 59.459 99.583,61.042 99.559,61.042 99.530 C 61.042 99.339,60.110 97.179,59.681 96.375 C 54.479 86.627,43.700 81.055,31.771 81.946 M113.750 111.979 L 113.750 142.083 116.875 142.083 L 120.000 142.083 120.000 111.979 L 120.000 81.875 116.875 81.875 L 113.750 81.875 113.750 111.979 M286.354 111.979 L 286.354 142.083 289.479 142.083 L 292.604 142.083 292.604 111.979 L 292.604 81.875 289.479 81.875 L 286.354 81.875 286.354 111.979 M240.592 82.985 C 240.553 83.024,240.521 96.337,240.521 112.569 L 240.521 142.083 243.958 142.083 L 247.396 142.083 247.399 132.734 L 247.401 123.385 251.092 119.192 L 254.783 114.999 260.132 122.109 C 263.074 126.019,267.657 132.113,270.317 135.651 L 275.154 142.083 279.041 142.083 C 282.125 142.083,282.912 142.056,282.849 141.953 C 282.768 141.821,259.741 110.049,259.567 109.829 C 259.503 109.749,263.287 105.368,271.195 96.364 C 277.642 89.023,282.917 82.995,282.917 82.967 C 282.917 82.939,281.115 82.917,278.913 82.917 L 274.909 82.917 274.095 83.829 C 273.647 84.331,267.469 91.414,260.365 99.570 L 247.448 114.399 247.396 98.684 L 247.344 82.969 244.003 82.941 C 242.166 82.926,240.631 82.946,240.592 82.985 M169.422 86.173 C 169.395 86.245,169.385 87.897,169.400 89.844 L 169.427 93.385 172.526 93.413 L 175.625 93.441 175.625 89.741 L 175.625 86.042 172.549 86.042 C 170.175 86.042,169.461 86.072,169.422 86.173 M345.938 89.740 L 345.938 93.441 349.036 93.413 L 352.135 93.385 352.135 89.740 L 352.135 86.094 349.036 86.066 L 345.938 86.039 345.938 89.740 M84.375 99.806 C 70.276 100.422,60.929 114.691,65.483 128.646 C 70.619 144.384,92.150 148.469,99.742 135.146 L 100.208 134.328 100.208 138.206 L 100.208 142.083 103.333 142.083 L 106.458 142.083 106.458 121.354 L 106.458 100.625 103.333 100.625 L 100.208 100.625 100.208 104.555 L 100.208 108.485 99.742 107.666 C 96.673 102.281,91.247 99.505,84.375 99.806 M198.950 99.849 C 195.002 100.564,191.553 103.104,189.648 106.701 L 189.271 107.413 189.271 104.019 L 189.271 100.625 186.198 100.625 L 183.125 100.625 183.125 121.354 L 183.125 142.083 186.199 142.083 L 189.273 142.083 189.246 129.609 C 189.214 114.954,189.193 115.223,190.634 112.104 C 194.541 103.647,207.059 103.321,211.122 111.571 C 212.656 114.686,212.633 114.427,212.679 129.401 L 212.718 142.083 215.842 142.083 L 218.967 142.083 218.930 128.984 C 218.892 114.885,218.912 115.437,218.343 112.832 C 216.727 105.425,211.853 100.766,204.760 99.847 C 203.229 99.648,200.052 99.650,198.950 99.849 M376.823 99.749 C 371.639 100.486,368.066 102.791,366.127 106.653 L 365.729 107.444 365.729 104.034 L 365.729 100.625 362.604 100.625 L 359.479 100.625 359.479 121.354 L 359.479 142.083 362.601 142.083 L 365.722 142.083 365.756 129.297 L 365.791 116.510 366.027 115.469 C 367.463 109.129,371.548 105.625,377.500 105.626 C 383.604 105.627,387.601 109.106,388.930 115.573 C 389.082 116.313,389.105 117.837,389.137 129.245 L 389.174 142.083 392.299 142.083 L 395.423 142.083 395.390 128.828 C 395.353 114.112,395.391 114.976,394.637 112.031 C 392.928 105.362,388.471 101.088,382.031 99.940 C 381.135 99.780,377.533 99.648,376.823 99.749 M316.425 99.952 C 303.669 101.691,295.667 114.654,299.230 127.813 C 304.473 147.177,332.428 148.511,339.066 129.714 L 339.369 128.854 336.273 128.857 L 333.177 128.859 332.760 129.607 C 329.003 136.351,320.458 139.098,313.438 135.819 C 308.623 133.571,305.319 128.909,304.755 123.568 L 304.697 123.021 322.312 123.021 L 339.926 123.021 339.864 121.276 C 339.382 107.675,329.009 98.238,316.425 99.952 M125.741 103.307 C 126.307 104.783,129.881 114.099,133.684 124.010 L 140.597 142.031 144.536 142.031 L 148.474 142.031 155.748 123.073 C 159.749 112.646,163.322 103.329,163.689 102.370 L 164.356 100.625 160.954 100.625 L 157.552 100.626 151.205 117.735 C 147.713 127.145,144.782 135.026,144.690 135.248 L 144.522 135.652 138.020 118.138 L 131.517 100.625 128.115 100.625 L 124.713 100.625 125.741 103.307 M169.375 121.354 L 169.375 142.083 172.500 142.083 L 175.625 142.083 175.625 121.354 L 175.625 100.625 172.500 100.625 L 169.375 100.625 169.375 121.354 M345.938 121.354 L 345.938 142.083 349.063 142.083 L 352.188 142.083 352.188 121.354 L 352.188 100.625 349.063 100.625 L 345.938 100.625 345.938 121.354 M322.500 105.871 C 327.101 106.943,330.765 110.105,332.444 114.454 C 332.800 115.377,333.227 116.934,333.228 117.318 C 333.229 117.490,332.490 117.500,319.158 117.500 L 305.088 117.500 305.155 117.161 C 306.738 109.222,314.683 104.050,322.500 105.871 M87.868 105.778 C 97.265 107.303,102.696 117.483,99.306 127.221 C 96.526 135.208,87.821 139.190,79.999 136.051 C 67.990 131.233,67.528 112.585,79.280 106.987 C 81.808 105.782,85.066 105.324,87.868 105.778 "
              stroke="none" fill="#4F5665" fill-rule="evenodd"></path>
    </g>
</svg>
