<?xml version="1.0" standalone="no"?>
<!DOCTYPE svg PUBLIC "-//W3C//DTD SVG 20010904//EN"
 "http://www.w3.org/TR/2001/REC-SVG-20010904/DTD/svg10.dtd">
<svg version="1.0" xmlns="http://www.w3.org/2000/svg"
 width="300.000000pt" height="75.000000pt" viewBox="0 0 300.000000 75.000000"
 preserveAspectRatio="xMidYMid meet">

<g transform="translate(0.000000,75.000000) scale(0.100000,-0.100000)"
fill="#4F5665" stroke="none">
<path d="M187 740 c-72 -18 -145 -60 -166 -94 -44 -70 -15 -158 62 -195 82
-40 257 -51 305 -21 15 10 15 11 -3 5 -56 -18 -103 -17 -148 3 -56 25 -81 67
-81 137 -1 101 68 161 171 153 39 -3 50 -2 38 5 -25 14 -133 18 -178 7z"/>
<path d="M1333 586 c-105 -130 -138 -165 -160 -169 -15 -2 6 -4 47 -4 41 0 60
2 43 4 -18 2 -33 7 -33 10 0 3 11 21 26 40 l25 33 118 0 117 0 32 -33 c18 -18
32 -36 32 -39 0 -4 -12 -9 -27 -11 -16 -2 40 -4 122 -4 83 0 136 2 119 4 -26
3 -56 30 -160 145 -71 77 -138 151 -149 165 l-20 24 -132 -165z m116 -6 c28
-27 51 -52 51 -55 0 -3 -43 -5 -95 -5 -52 0 -95 3 -95 6 0 10 73 104 81 104 3
0 30 -22 58 -50z"/>
<path d="M1990 734 c-73 -20 -136 -58 -155 -94 -8 -16 -15 -50 -15 -76 0 -86
80 -135 243 -150 45 -4 89 -2 116 6 57 15 49 21 -11 8 -62 -15 -113 0 -157 46
-28 29 -35 45 -38 88 -8 103 62 172 167 165 52 -4 54 -3 25 9 -39 17 -107 16
-175 -2z"/>
<path d="M462 724 c-14 -10 -32 -14 -48 -10 -21 6 -19 2 15 -30 22 -19 43 -44
46 -55 13 -39 25 -17 25 46 0 36 -3 65 -8 65 -4 0 -18 -7 -30 -16z"/>
<path d="M753 725 c-72 -20 -127 -49 -153 -82 -18 -23 -21 -37 -17 -76 2 -27
12 -56 23 -69 28 -31 117 -67 199 -80 127 -20 300 24 341 87 22 34 22 106 1
139 -50 76 -256 118 -394 81z m215 -22 c45 -32 64 -80 59 -144 -7 -88 -38
-121 -126 -135 -27 -4 -51 0 -85 15 -38 17 -50 29 -68 67 -51 117 23 231 145
221 27 -2 61 -13 75 -24z"/>
<path d="M2275 724 c-12 -9 -30 -13 -45 -9 l-25 6 27 -23 c16 -13 39 -38 53
-57 l25 -35 0 67 c0 37 -3 67 -7 67 -5 0 -17 -7 -28 -16z"/>
<path d="M2428 733 l33 -4 -3 -152 -3 -151 -25 -7 c-14 -4 29 -7 95 -7 66 1
107 3 92 5 l-28 4 3 77 3 77 105 0 105 0 3 -77 3 -77 -28 -4 c-15 -2 28 -4 97
-4 69 0 112 2 95 6 l-30 6 0 150 0 150 30 6 c17 4 -26 6 -95 6 -69 0 -112 -2
-97 -4 28 -4 28 -5 25 -71 l-3 -67 -105 0 -105 0 -3 67 c-3 66 -3 67 25 71 15
2 -28 4 -97 4 -69 0 -110 -2 -92 -4z"/>
<path d="M480 530 c0 -5 -17 -29 -37 -52 -21 -24 -33 -40 -29 -36 5 4 23 -1
41 -12 18 -11 35 -17 38 -13 11 10 8 123 -3 123 -5 0 -10 -4 -10 -10z"/>
<path d="M2297 524 c-4 -12 -19 -33 -33 -48 l-26 -25 34 -21 33 -20 3 35 c2
20 2 50 0 68 -3 28 -4 29 -11 11z"/>
<path d="M654 216 c-89 -39 -85 -163 6 -200 80 -32 195 -10 234 45 36 52 7
127 -60 155 -42 18 -139 17 -180 0z m185 -40 c28 -25 28 -89 2 -115 -24 -24
-79 -36 -128 -28 -90 15 -114 112 -38 156 31 18 140 9 164 -13z"/>
<path d="M980 142 c0 -82 2 -90 25 -112 33 -31 123 -39 177 -17 45 19 61 63
56 152 -2 46 -7 61 -19 63 -14 3 -17 -9 -21 -78 -3 -71 -6 -84 -27 -101 -27
-22 -84 -25 -121 -6 -23 11 -25 19 -30 97 -4 70 -8 85 -22 88 -16 3 -18 -6
-18 -86z"/>
<path d="M1287 223 c-16 -16 -3 -22 51 -25 l57 -3 3 -93 c2 -84 4 -92 22 -92
18 0 20 7 20 95 l0 95 55 0 c42 0 55 3 55 15 0 13 -21 15 -128 15 -71 0 -132
-3 -135 -7z"/>
<path d="M1600 121 l0 -111 110 0 c91 0 110 3 110 15 0 12 -16 15 -85 15 l-84
0 -3 93 c-3 87 -4 92 -25 95 -23 3 -23 2 -23 -107z"/>
<path d="M1877 223 c-4 -3 -7 -53 -7 -110 l0 -103 120 0 c99 0 120 3 120 15 0
11 -20 15 -97 17 l-98 3 -3 28 -3 27 95 0 c78 0 96 3 96 15 0 11 -19 15 -92
17 l-93 3 0 30 0 30 98 3 c77 2 97 6 97 17 0 12 -21 15 -113 15 -63 0 -117 -3
-120 -7z"/>
<path d="M2160 215 c0 -11 12 -15 50 -15 l50 0 0 -95 c0 -94 0 -95 25 -95 24
0 24 2 27 92 l3 93 53 3 c36 2 52 7 49 15 -2 8 -43 13 -130 15 -109 2 -127 0
-127 -13z"/>
</g>
</svg>
