<?xml version="1.0" standalone="no"?>
<!DOCTYPE svg PUBLIC "-//W3C//DTD SVG 20010904//EN"
 "http://www.w3.org/TR/2001/REC-SVG-20010904/DTD/svg10.dtd">
<svg version="1.0" xmlns="http://www.w3.org/2000/svg"
 width="314.000000pt" height="240.000000pt" viewBox="0 0 314.000000 240.000000"
 preserveAspectRatio="xMidYMid meet">

<g transform="translate(0.000000,240.000000) scale(0.100000,-0.100000)"
fill="#4F5665" stroke="none">
<path d="M347 2249 c-90 -21 -159 -88 -177 -173 -8 -36 -10 -303 -8 -896 l3
-845 23 -50 c42 -91 88 -126 191 -145 82 -15 154 0 223 46 58 39 76 38 84 -6
5 -25 11 -30 35 -30 l29 0 0 445 0 445 45 0 c43 0 45 1 45 30 l0 30 -195 0
-195 0 0 -25 c0 -24 3 -25 55 -25 l56 0 -3 -401 -3 -401 -33 -29 c-60 -54
-159 -30 -177 43 -3 12 -4 442 -3 955 3 928 3 932 24 960 26 34 82 43 121 18
57 -38 96 -193 112 -450 6 -99 12 -140 22 -146 8 -5 38 -9 67 -9 l52 0 0 325
0 325 -35 0 c-31 0 -35 -3 -35 -25 0 -37 -22 -40 -67 -11 -42 28 -140 57 -188
55 -16 -1 -47 -5 -68 -10z"/>
<path d="M1437 2203 c-3 -21 -58 -463 -122 -983 -78 -627 -121 -953 -131 -967
-9 -15 -29 -25 -54 -29 -34 -6 -40 -10 -40 -30 l0 -24 155 0 c155 0 155 0 155
23 0 19 -8 25 -45 35 -31 8 -49 20 -56 35 -8 18 0 111 30 378 23 195 44 369
46 387 l6 32 114 0 113 0 6 -37 c27 -174 95 -749 90 -765 -6 -21 -42 -38 -80
-38 -19 0 -24 -5 -24 -25 l0 -25 190 0 190 0 0 24 c0 19 -7 25 -33 30 -75 14
-63 -49 -196 1026 -67 536 -121 978 -121 983 0 4 -42 7 -94 7 l-93 0 -6 -37z
m89 -673 c30 -215 54 -398 54 -406 0 -11 -21 -14 -106 -14 l-107 0 6 32 c2 18
24 203 48 410 24 207 45 375 47 373 2 -1 28 -179 58 -395z"/>
<path d="M2300 2211 c0 -30 1 -31 45 -31 l45 0 -2 -972 -3 -973 -42 -13 c-35
-11 -43 -18 -43 -38 l0 -24 210 0 210 0 0 24 c0 21 -5 24 -52 28 -40 4 -57 11
-75 32 l-23 27 0 390 0 389 92 0 c117 0 194 21 249 68 70 60 69 52 69 521 l0
419 -28 53 c-24 47 -36 58 -96 89 l-69 35 -243 3 -244 4 0 -31z m423 -46 c18
-9 41 -28 52 -43 19 -26 20 -45 23 -467 3 -397 2 -443 -14 -472 -23 -44 -68
-63 -148 -63 l-66 0 0 530 0 530 61 0 c34 0 75 -7 92 -15z"/>
</g>
</svg>
