<?xml version="1.0" standalone="no"?>
<!DOCTYPE svg PUBLIC "-//W3C//DTD SVG 20010904//EN"
 "http://www.w3.org/TR/2001/REC-SVG-20010904/DTD/svg10.dtd">
<svg version="1.0" xmlns="http://www.w3.org/2000/svg"
 width="301.000000pt" height="167.000000pt" viewBox="0 0 301.000000 167.000000"
 preserveAspectRatio="xMidYMid meet">

<g transform="translate(0.000000,167.000000) scale(0.100000,-0.100000)"
fill="#4F5665" stroke="none">
<path d="M2655 1039 c-4 -6 -13 -8 -20 -5 -7 2 -18 -1 -24 -7 -6 -6 -11 -7
-11 -3 0 5 -6 4 -12 -2 -7 -6 -32 -13 -55 -17 -23 -3 -56 -8 -73 -10 -16 -3
-44 -7 -61 -10 -17 -2 -38 -10 -47 -17 -8 -7 -16 -11 -18 -8 -1 3 -23 -12 -48
-33 -46 -40 -60 -72 -58 -136 1 -18 8 -43 15 -55 8 -12 12 -35 10 -51 -5 -44
8 -60 38 -44 13 7 27 12 31 11 3 -1 9 6 12 14 4 10 -1 18 -12 21 -13 3 -18 13
-18 38 1 26 4 31 14 23 7 -6 11 -17 8 -23 -8 -23 18 -35 75 -35 38 0 61 5 69
15 7 8 17 15 23 15 5 0 2 -9 -7 -19 -17 -19 -17 -21 0 -50 16 -27 54 -40 54
-18 0 5 6 7 12 5 12 -4 38 14 38 27 0 3 -10 10 -22 15 -20 8 -19 9 12 9 20 1
62 8 95 16 44 12 83 14 151 9 64 -5 97 -3 114 6 22 12 22 13 4 23 -10 7 -21
12 -24 12 -34 7 -98 32 -110 43 -13 13 -13 14 2 9 9 -3 18 -2 20 3 2 5 14 11
28 14 14 2 27 5 30 6 3 2 8 2 13 1 4 0 7 4 7 10 0 6 6 9 14 6 14 -6 32 21 21
31 -2 3 -30 0 -61 -6 -31 -7 -60 -9 -65 -6 -5 3 -9 -1 -9 -8 0 -10 -2 -10 -9
1 -6 10 -20 12 -47 7 -63 -11 -106 -10 -162 2 -42 9 -70 8 -139 -4 -48 -8 -93
-12 -101 -9 -32 12 22 45 131 80 112 36 159 62 177 96 11 20 6 27 -5 8z m-275
-89 c0 -5 -4 -10 -10 -10 -5 0 -10 5 -10 10 0 6 5 10 10 10 6 0 10 -4 10 -10z
m-30 -20 c0 -5 -7 -7 -15 -4 -8 4 -15 8 -15 10 0 2 7 4 15 4 8 0 15 -4 15 -10z
m-24 -24 c17 -18 8 -46 -15 -46 -14 1 -14 2 1 14 16 12 16 14 0 29 -9 9 -13
17 -8 17 4 0 14 -6 22 -14z m-26 -16 c0 -5 -4 -10 -10 -10 -5 0 -10 5 -10 10
0 6 5 10 10 10 6 0 10 -4 10 -10z m-10 -30 c0 -5 -4 -10 -10 -10 -5 0 -10 5
-10 10 0 6 5 10 10 10 6 0 10 -4 10 -10z m240 -10 c0 -5 -4 -10 -10 -10 -5 0
-10 5 -10 10 0 6 5 10 10 10 6 0 10 -4 10 -10z m30 0 c0 -5 -5 -10 -11 -10 -5
0 -7 5 -4 10 3 6 8 10 11 10 2 0 4 -4 4 -10z m220 6 c0 -2 -7 -6 -15 -10 -8
-3 -15 -1 -15 4 0 6 7 10 15 10 8 0 15 -2 15 -4z m-443 -21 c8 -9 13 -19 10
-22 -6 -5 -37 21 -37 31 0 10 11 6 27 -9z m123 5 c0 -5 -7 -10 -16 -10 -8 0
-12 5 -9 10 3 6 10 10 16 10 5 0 9 -4 9 -10z m30 0 c0 -5 -2 -10 -4 -10 -3 0
-8 5 -11 10 -3 6 -1 10 4 10 6 0 11 -4 11 -10z m110 0 c0 -5 -4 -10 -10 -10
-5 0 -10 5 -10 10 0 6 5 10 10 10 6 0 10 -4 10 -10z m-310 -10 c0 -5 -2 -10
-4 -10 -3 0 -8 5 -11 10 -3 6 -1 10 4 10 6 0 11 -4 11 -10z m130 0 c0 -5 -4
-10 -10 -10 -5 0 -10 5 -10 10 0 6 5 10 10 10 6 0 10 -4 10 -10z m210 0 c0 -5
-4 -10 -10 -10 -5 0 -10 5 -10 10 0 6 5 10 10 10 6 0 10 -4 10 -10z m-240 -4
c0 -11 -19 -15 -25 -6 -3 5 1 10 9 10 9 0 16 -2 16 -4z m130 -6 c0 -5 -4 -10
-10 -10 -5 0 -10 5 -10 10 0 6 5 10 10 10 6 0 10 -4 10 -10z m40 0 c0 -5 -7
-10 -16 -10 -8 0 -12 5 -9 10 3 6 10 10 16 10 5 0 9 -4 9 -10z m-110 -10 c0
-5 -5 -10 -11 -10 -5 0 -7 5 -4 10 3 6 8 10 11 10 2 0 4 -4 4 -10z m37 4 c-3
-3 -12 -4 -19 -1 -8 3 -5 6 6 6 11 1 17 -2 13 -5z m103 -4 c0 -5 -4 -10 -10
-10 -5 0 -10 5 -10 10 0 6 5 10 10 10 6 0 10 -4 10 -10z m-280 -10 c0 -5 -2
-10 -4 -10 -3 0 -8 5 -11 10 -3 6 -1 10 4 10 6 0 11 -4 11 -10z m100 0 c0 -5
-5 -10 -11 -10 -5 0 -7 5 -4 10 3 6 8 10 11 10 2 0 4 -4 4 -10z m-70 -10 c0
-5 -5 -10 -11 -10 -5 0 -7 5 -4 10 3 6 8 10 11 10 2 0 4 -4 4 -10z m40 0 c0
-5 -4 -10 -10 -10 -5 0 -10 5 -10 10 0 6 5 10 10 10 6 0 10 -4 10 -10z m130 0
c0 -5 -5 -10 -11 -10 -5 0 -7 5 -4 10 3 6 8 10 11 10 2 0 4 -4 4 -10z m40 0
c0 -5 -5 -10 -11 -10 -5 0 -7 5 -4 10 3 6 8 10 11 10 2 0 4 -4 4 -10z m-110
-10 c0 -5 -5 -10 -11 -10 -5 0 -7 5 -4 10 3 6 8 10 11 10 2 0 4 -4 4 -10z m40
0 c0 -5 -2 -10 -4 -10 -3 0 -8 5 -11 10 -3 6 -1 10 4 10 6 0 11 -4 11 -10z
m-73 -16 c-3 -3 -12 -4 -19 -1 -8 3 -5 6 6 6 11 1 17 -2 13 -5z"/>
<path d="M712 960 c-75 -18 -123 -101 -103 -176 25 -92 129 -131 222 -83 39
20 40 21 24 39 -16 17 -20 18 -38 5 -25 -18 -90 -20 -119 -4 -26 14 -48 67
-41 102 7 35 57 77 91 77 15 0 40 -7 56 -15 28 -15 56 -7 56 16 0 26 -97 51
-148 39z"/>
<path d="M1013 960 c-75 -18 -120 -80 -110 -152 19 -140 203 -177 277 -56 66
108 -39 239 -167 208z m86 -54 c56 -29 67 -102 22 -147 -54 -54 -150 -30 -166
42 -18 83 66 145 144 105z"/>
<path d="M1318 961 c-43 -9 -68 -37 -68 -74 0 -41 21 -62 83 -83 51 -17 72
-36 64 -59 -10 -23 -54 -29 -98 -12 -37 15 -40 14 -50 -4 -9 -17 -5 -22 25
-34 45 -19 99 -19 135 0 32 16 41 33 41 74 0 36 -24 57 -91 79 -55 19 -75 46
-47 63 19 12 66 11 90 -2 18 -9 24 -8 35 7 12 16 11 20 -9 30 -32 16 -78 22
-110 15z"/>
<path d="M50 820 l0 -140 95 0 c95 0 95 0 95 25 0 24 -2 25 -75 25 l-75 0 0
115 c0 108 -1 115 -20 115 -19 0 -20 -7 -20 -140z"/>
<path d="M345 833 c-31 -71 -59 -134 -62 -140 -3 -8 4 -13 19 -13 18 0 29 9
41 35 l17 35 73 0 73 0 17 -35 c13 -26 23 -35 42 -35 14 0 25 2 25 5 0 3 -30
66 -67 140 -61 122 -70 135 -94 135 -24 0 -31 -11 -84 -127z m104 40 c10 -21
22 -48 25 -60 7 -22 5 -23 -44 -23 -58 0 -56 -6 -22 77 9 24 18 43 19 43 2 0
11 -17 22 -37z"/>
<path d="M1490 940 c0 -17 7 -20 45 -20 l45 0 0 -120 0 -120 25 0 25 0 0 120
0 120 45 0 c38 0 45 3 45 20 0 19 -7 20 -115 20 -108 0 -115 -1 -115 -20z"/>
<path d="M1770 820 l0 -140 105 0 105 0 0 25 c0 25 -1 25 -80 25 l-80 0 0 35
0 35 70 0 c63 0 70 2 70 20 0 18 -7 20 -70 20 l-70 0 0 40 0 40 80 0 c73 0 80
2 80 20 0 19 -7 20 -105 20 l-105 0 0 -140z"/>
</g>
</svg>
