<svg id="svg" version="1.1" xmlns="http://www.w3.org/2000/svg" xmlns:xlink="http://www.w3.org/1999/xlink" width="400"
     height="43.75" viewBox="0, 0, 400,43.75">
    <g id="svgg">
        <path id="path0"
              d="M76.474 3.664 C 64.855 5.894,58.443 18.216,63.039 29.487 C 69.079 44.302,90.903 44.254,96.102 29.414 L 96.389 28.594 92.687 28.595 L 88.984 28.596 88.395 29.511 C 82.995 37.894,69.713 33.956,68.273 23.546 C 66.618 11.582,82.413 4.868,88.653 14.883 L 89.407 16.094 92.985 16.094 C 95.195 16.094,96.563 16.036,96.563 15.942 C 96.563 15.044,94.910 11.706,93.637 10.033 C 89.907 5.132,82.721 2.465,76.474 3.664 M303.672 3.687 C 289.037 6.281,283.287 24.353,293.693 35.052 C 303.264 44.893,320.158 41.047,324.518 28.034 C 329.021 14.594,317.572 1.223,303.672 3.687 M378.474 3.671 C 371.827 4.876,367.952 8.807,367.923 14.375 C 367.893 20.188,370.751 22.569,380.391 24.762 C 384.866 25.781,385.546 25.961,386.628 26.411 C 391.505 28.441,390.439 32.792,384.766 34.015 C 379.878 35.069,374.444 33.104,371.640 29.270 C 371.490 29.064,367.227 31.885,366.029 32.983 C 365.671 33.311,368.137 35.922,370.000 37.188 C 377.280 42.131,389.187 41.625,394.195 36.160 C 397.585 32.460,397.710 25.900,394.453 22.574 C 392.431 20.508,389.693 19.511,381.016 17.680 C 375.801 16.579,373.779 14.488,375.481 11.957 C 377.869 8.404,385.587 9.058,389.738 13.165 C 390.563 13.981,391.194 14.489,391.303 14.424 C 391.964 14.028,396.406 10.590,396.406 10.474 C 396.406 9.902,393.536 7.210,391.641 6.004 C 388.306 3.883,382.743 2.898,378.474 3.671 M3.438 21.953 L 3.438 39.688 6.718 39.688 L 9.998 39.688 10.038 27.329 L 10.078 14.971 14.320 27.290 L 18.562 39.609 22.211 39.650 L 25.859 39.691 30.078 27.436 L 34.297 15.182 34.337 27.435 L 34.377 39.688 37.735 39.688 L 41.094 39.688 41.094 21.953 L 41.094 4.219 36.211 4.220 L 31.328 4.222 26.802 16.796 C 24.313 23.711,22.231 29.318,22.175 29.255 C 22.120 29.192,20.192 23.902,17.891 17.500 C 15.590 11.098,13.571 5.490,13.405 5.039 L 13.103 4.219 8.270 4.219 L 3.438 4.219 3.438 21.953 M49.219 21.953 L 49.219 39.688 52.500 39.688 L 55.781 39.688 55.781 21.953 L 55.781 4.219 52.500 4.219 L 49.219 4.219 49.219 21.953 M102.813 21.953 L 102.813 39.688 106.094 39.688 L 109.375 39.688 109.375 32.500 L 109.375 25.313 117.500 25.313 L 125.625 25.313 125.625 32.500 L 125.625 39.688 128.906 39.688 L 132.188 39.688 132.188 21.953 L 132.188 4.219 128.906 4.219 L 125.625 4.219 125.625 11.484 L 125.625 18.750 117.500 18.750 L 109.375 18.750 109.375 11.484 L 109.375 4.219 106.094 4.219 L 102.813 4.219 102.813 21.953 M144.255 21.837 C 140.368 31.527,137.188 39.507,137.188 39.571 C 137.188 39.635,138.787 39.687,140.742 39.686 L 144.297 39.684 145.867 35.740 L 147.436 31.797 154.695 31.758 L 161.953 31.720 163.523 35.665 L 165.092 39.609 168.708 39.651 L 172.323 39.693 167.440 27.542 C 164.755 20.859,161.553 12.877,160.325 9.805 L 158.093 4.219 154.707 4.219 L 151.322 4.219 144.255 21.837 M177.188 21.953 L 177.188 39.688 189.531 39.688 L 201.875 39.688 201.875 36.406 L 201.875 33.125 192.813 33.125 L 183.750 33.125 183.750 29.219 L 183.750 25.313 192.813 25.313 L 201.875 25.313 201.875 22.031 L 201.875 18.750 192.813 18.750 L 183.750 18.750 183.750 14.844 L 183.750 10.938 192.813 10.938 L 201.875 10.938 201.875 7.578 L 201.875 4.219 189.531 4.219 L 177.188 4.219 177.188 21.953 M210.938 21.953 L 210.938 39.688 221.797 39.688 L 232.656 39.688 232.656 36.406 L 232.656 33.125 225.078 33.125 L 217.500 33.125 217.500 18.672 L 217.500 4.219 214.219 4.219 L 210.938 4.219 210.938 21.953 M257.500 21.953 L 257.500 39.688 260.859 39.688 L 264.219 39.688 264.219 33.865 L 264.219 28.043 266.369 25.896 C 267.552 24.716,268.564 23.750,268.619 23.750 C 268.674 23.750,271.274 27.334,274.398 31.715 L 280.078 39.680 284.185 39.684 L 288.293 39.688 287.935 39.170 C 287.739 38.885,284.379 34.165,280.469 28.682 C 276.559 23.198,273.374 18.682,273.393 18.647 C 273.411 18.611,276.469 15.414,280.189 11.542 C 283.909 7.670,286.977 4.438,287.005 4.360 C 287.035 4.278,285.234 4.219,282.705 4.219 L 278.353 4.219 271.325 11.468 L 264.297 18.717 264.256 11.468 L 264.216 4.219 260.858 4.219 L 257.500 4.219 257.500 21.953 M332.813 21.944 L 332.813 39.688 336.094 39.688 L 339.375 39.688 339.375 33.906 L 339.375 28.125 344.023 28.127 L 348.672 28.129 351.953 33.901 L 355.234 39.674 359.118 39.681 C 362.322 39.686,362.988 39.650,362.921 39.476 C 362.876 39.360,361.214 36.459,359.227 33.031 C 355.615 26.798,355.614 26.797,355.966 26.563 C 364.915 20.596,363.244 7.736,353.121 4.666 C 351.972 4.318,351.799 4.311,342.383 4.257 L 332.813 4.201 332.813 21.944 M309.916 10.401 C 318.348 12.675,321.678 22.900,316.164 29.584 C 310.366 36.614,299.255 34.873,295.832 26.400 C 292.240 17.506,300.687 7.911,309.916 10.401 M351.829 11.275 C 355.382 12.605,356.293 17.222,353.536 19.922 C 351.945 21.479,352.004 21.468,345.195 21.528 L 339.375 21.580 339.375 16.259 L 339.375 10.938 345.150 10.938 C 350.688 10.938,350.963 10.951,351.829 11.275 M157.048 19.336 L 159.306 25.078 154.785 25.120 C 152.299 25.142,150.234 25.130,150.195 25.091 C 150.108 25.003,154.577 13.595,154.700 13.594 C 154.749 13.594,155.806 16.178,157.048 19.336 "
              stroke="none" fill="#4F5665" fill-rule="evenodd"></path>
    </g>
</svg>
