<svg id="svg" version="1.1" xmlns="http://www.w3.org/2000/svg" xmlns:xlink="http://www.w3.org/1999/xlink" width="400"
     height="533.3333333333334" viewBox="0, 0, 400,533.3333333333334">
    <g id="svgg">
        <path id="path0"
              d="M375.556 235.571 C 374.383 236.340,375.042 236.452,377.778 235.950 C 382.570 235.071,383.474 234.439,379.907 234.461 C 378.431 234.471,376.472 234.970,375.556 235.571 M366.111 237.763 C 364.278 238.241,359.778 239.473,356.111 240.500 C 352.444 241.528,344.694 243.600,338.889 245.106 C 323.258 249.159,233.835 272.881,217.778 277.234 C 201.065 281.764,116.834 304.261,110.556 305.871 C 101.333 308.236,77.843 307.508,71.667 304.665 C 53.482 296.296,47.383 275.164,55.948 250.207 C 59.745 239.144,59.444 238.456,53.537 244.679 C 11.501 288.956,1.256 338.999,30.695 356.251 C 46.671 365.614,64.900 365.383,94.623 355.443 C 104.022 352.299,243.741 293.707,270.556 281.664 C 272.389 280.840,278.164 278.445,283.389 276.340 C 288.614 274.236,299.864 269.507,308.389 265.832 C 316.914 262.157,332.139 255.632,342.222 251.332 C 363.980 242.054,373.333 237.788,373.333 237.141 C 373.333 236.463,369.994 236.751,366.111 237.763 "
              stroke="none" fill="#4F5665" fill-rule="evenodd"></path>
    </g>
</svg>
