<?xml version="1.0" standalone="no"?>
<!DOCTYPE svg PUBLIC "-//W3C//DTD SVG 20010904//EN"
 "http://www.w3.org/TR/2001/REC-SVG-20010904/DTD/svg10.dtd">
<svg version="1.0" xmlns="http://www.w3.org/2000/svg"
 width="2560.000000pt" height="725.000000pt" viewBox="0 0 2560.000000 725.000000"
 preserveAspectRatio="xMidYMid meet">

<g transform="translate(0.000000,725.000000) scale(0.100000,-0.100000)"
fill="#4F5665" stroke="none">
<path d="M24735 7064 c-2115 -146 -3254 -236 -4650 -364 -2750 -253 -5087
-559 -6833 -895 -161 -31 -190 -39 -175 -50 10 -6 234 -138 498 -293 264 -154
885 -519 1379 -810 l899 -529 161 65 c89 35 310 123 491 194 2800 1100 4525
1644 7950 2504 492 123 831 213 805 212 -25 0 -261 -15 -525 -34z"/>
<path d="M130 6964 c8 -2 208 -40 445 -84 4433 -828 8062 -1821 11905 -3258
1696 -634 3098 -1208 6590 -2694 388 -165 1002 -426 1364 -580 363 -153 665
-281 670 -284 30 -15 -42 36 -145 101 -1593 1012 -10424 6182 -11545 6758
l-90 47 -4605 -1 c-2532 -1 -4597 -3 -4589 -5z"/>
<path d="M7550 4403 c-1629 -585 -2934 -1202 -4000 -1892 -968 -627 -1732
-1303 -2409 -2131 l-82 -100 2088 0 2088 0 61 83 c171 229 597 670 919 951
1013 885 2292 1654 3687 2217 114 46 204 86 200 90 -28 26 -1669 548 -2273
723 -221 64 -248 70 -279 59z"/>
<path d="M10860 3261 c-1218 -559 -2211 -1193 -3085 -1970 -176 -157 -527
-508 -661 -662 -95 -109 -245 -298 -268 -336 -6 -10 375 -13 1888 -13 l1895 0
96 141 c263 387 525 700 876 1044 326 321 674 606 1217 1000 111 80 160 121
150 125 -99 55 -1937 733 -1974 729 -5 0 -65 -27 -134 -58z"/>
</g>
</svg>
