<?xml version="1.0" standalone="no"?>
<!DOCTYPE svg PUBLIC "-//W3C//DTD SVG 20010904//EN"
 "http://www.w3.org/TR/2001/REC-SVG-20010904/DTD/svg10.dtd">
<svg version="1.0" xmlns="http://www.w3.org/2000/svg"
 width="217.000000pt" height="232.000000pt" viewBox="0 0 217.000000 232.000000"
 preserveAspectRatio="xMidYMid meet">

<g transform="translate(0.000000,232.000000) scale(0.100000,-0.100000)"
fill="#4F5665" stroke="none">
<path d="M1025 1755 c-15 -36 -33 -65 -40 -65 -6 0 -21 24 -34 54 -22 54 -23
54 -52 44 -26 -9 -29 -14 -29 -55 0 -37 -3 -44 -17 -39 -65 18 -79 17 -103 -9
l-23 -25 56 -59 c32 -33 57 -64 57 -70 0 -28 -43 -6 -88 46 -43 49 -52 55 -66
44 -14 -12 -11 -18 24 -60 l40 -46 -63 -3 -63 -3 -12 -46 c-33 -122 -20 -254
35 -356 l28 -52 90 5 c103 6 206 6 460 0 99 -2 203 0 231 4 51 8 52 8 78 65
33 74 51 181 42 251 -11 88 -9 87 -127 52 -97 -28 -132 -36 -152 -33 -5 0 0
14 9 30 14 25 27 31 76 40 32 5 78 19 102 30 36 15 44 23 39 39 -5 20 -8 19
-85 -14 -44 -19 -82 -34 -84 -34 -11 0 -2 36 18 71 21 37 24 39 71 39 34 0 47
4 45 13 -3 8 -30 13 -76 15 -40 2 -72 5 -72 7 0 2 10 20 21 40 16 27 19 39 11
47 -14 14 -10 19 -62 -64 -23 -38 -44 -68 -46 -68 -5 0 -46 81 -42 84 2 1 24
18 51 36 26 18 47 37 47 41 0 20 -23 18 -59 -6 -23 -14 -45 -25 -51 -25 -5 0
-21 23 -35 50 -17 34 -31 50 -45 50 -21 0 -21 0 19 -93 l21 -48 -22 3 c-16 2
-28 19 -48 67 -14 36 -31 66 -37 68 -6 2 -23 -26 -38 -62z m69 -127 c1 -68 0
-73 -26 -87 -15 -9 -30 -12 -35 -7 -4 4 -8 38 -8 74 0 49 5 74 19 95 17 25 21
27 34 13 11 -11 16 -37 16 -88z m-156 53 c3 -16 -1 -22 -10 -19 -7 3 -15 15
-16 27 -3 16 1 22 10 19 7 -3 15 -15 16 -27z m-90 -27 c17 -5 22 -14 22 -40 0
-19 -3 -34 -7 -33 -5 0 -23 18 -42 40 -35 41 -30 48 27 33z m102 -58 c0 -35
-10 -56 -26 -56 -10 0 -14 12 -14 40 0 33 3 40 20 40 14 0 20 -7 20 -24z m265
-67 c-8 -24 -63 -89 -76 -89 -11 0 -12 71 -1 85 4 6 21 20 37 32 25 18 31 19
38 7 5 -8 5 -24 2 -35z m115 44 c0 -19 -41 -73 -55 -73 -20 0 -19 6 6 46 18
30 49 47 49 27z m-324 -88 c9 -48 2 -51 -25 -14 -19 25 -21 33 -10 40 23 14
28 11 35 -26z m-276 -10 c0 -21 -24 -29 -49 -15 -28 14 -18 30 20 30 19 0 29
-5 29 -15z m168 -5 c11 -18 8 -24 -20 -49 -31 -28 -32 -28 -70 -12 -42 18 -45
26 -22 59 21 30 93 32 112 2z m182 -5 c0 -14 -4 -25 -10 -25 -5 0 -10 11 -10
25 0 14 5 25 10 25 6 0 10 -11 10 -25z m170 -37 c-1 -21 -26 -48 -44 -48 -20
0 -20 5 0 35 17 26 44 34 44 13z m-295 -53 c-15 -11 -37 -28 -49 -37 -21 -17
-21 -17 10 -18 16 0 39 7 50 15 10 8 29 15 42 15 36 0 46 -36 37 -135 l-7 -87
-39 6 c-80 13 -244 27 -278 24 -35 -3 -37 -2 -53 47 -23 65 -20 131 5 129 9
-1 28 12 42 28 24 28 27 29 61 18 26 -9 33 -15 25 -23 -17 -17 -13 -27 12 -27
14 0 46 20 78 49 51 46 55 48 73 33 17 -16 17 -18 -9 -37z m-265 39 c0 -13
-21 -44 -30 -44 -6 0 -10 11 -10 25 0 18 5 25 20 25 11 0 20 -3 20 -6z m836
-51 c10 -52 -8 -148 -42 -223 l-28 -63 -110 7 c-61 4 -135 10 -163 13 l-53 6
0 107 0 106 76 18 c75 18 76 18 98 -3 29 -28 40 -27 32 3 -11 44 62 51 105 10
31 -30 56 -25 38 7 -14 27 -5 49 20 49 15 0 22 -9 27 -37z"/>
<path d="M1415 1030 c-27 -5 -187 -6 -355 -3 -182 3 -315 1 -329 -4 -19 -8 -3
-11 75 -16 54 -3 146 -15 204 -27 58 -11 162 -26 232 -32 107 -10 131 -10 153
2 26 14 94 91 78 89 -4 -1 -30 -5 -58 -9z"/>
<path d="M740 978 c0 -13 128 -92 178 -110 112 -41 262 -35 371 15 l46 21 -80
7 c-44 4 -150 19 -235 33 -173 28 -280 41 -280 34z"/>
<path d="M500 720 c-13 -24 -5 -26 16 -5 9 8 22 15 30 15 19 0 21 -216 2 -223
-7 -3 5 -6 26 -6 31 -1 37 2 28 11 -8 8 -12 48 -12 115 0 109 8 124 45 86 16
-16 17 -15 13 3 -3 16 -13 19 -70 22 -59 3 -68 0 -78 -18z"/>
<path d="M1624 718 c4 -13 10 -31 13 -40 4 -15 1 -17 -25 -12 -38 8 -52 -15
-52 -81 0 -71 12 -85 70 -85 47 0 63 11 40 25 -6 3 -10 52 -10 111 0 99 -1
104 -21 104 -17 0 -20 -4 -15 -22z m6 -133 c0 -54 -13 -76 -32 -57 -15 15 -15
87 1 106 21 25 31 9 31 -49z"/>
<path d="M897 722 c-3 -4 -1 -32 5 -62 5 -30 8 -78 6 -105 l-4 -51 38 -1 c45
-2 58 15 58 79 0 54 -19 83 -49 75 -19 -5 -21 -1 -21 34 0 27 -4 39 -14 39 -8
0 -17 -3 -19 -8z m77 -115 c12 -33 -3 -82 -24 -82 -16 0 -27 73 -16 102 9 21
29 11 40 -20z"/>
<path d="M1239 728 c0 -2 -1 -54 -2 -116 l-2 -112 29 0 c23 0 27 3 18 12 -8 8
-12 48 -12 115 0 85 -3 103 -15 103 -8 0 -15 -1 -16 -2z"/>
<path d="M1192 651 c-7 -4 -23 -6 -35 -4 -21 4 -22 1 -22 -71 0 -75 0 -76 26
-76 25 0 25 1 21 60 -4 60 -4 60 23 60 21 0 26 4 21 16 -3 9 -6 18 -6 20 0 7
-14 4 -28 -5z"/>
<path d="M645 642 c-5 -4 -10 -37 -10 -75 0 -64 1 -67 24 -67 18 0 21 3 13 13
-6 7 -12 41 -14 75 -2 38 -7 59 -13 54z"/>
<path d="M703 639 c-12 -4 -13 -8 -5 -13 16 -10 16 -113 0 -119 -7 -3 2 -6 21
-6 28 -1 31 1 22 13 -7 8 -11 36 -9 63 3 41 6 48 26 51 21 3 22 0 22 -56 0
-39 -4 -62 -12 -65 -7 -3 -2 -6 12 -6 24 -1 25 1 22 59 -3 48 -1 61 13 66 9 4
18 4 21 1 13 -12 15 -99 4 -113 -10 -11 -8 -14 11 -14 24 0 24 1 19 72 l-5 73
-73 0 c-40 0 -80 -3 -89 -6z"/>
<path d="M1040 630 c-24 -24 -26 -60 -5 -100 24 -47 86 -36 84 14 0 20 -1 20
-9 -1 -10 -25 -29 -30 -48 -11 -21 21 -13 46 18 57 35 12 37 21 12 44 -24 22
-28 21 -52 -3z m37 -17 c4 -11 -26 -27 -35 -19 -2 3 -2 12 2 21 6 18 27 16 33
-2z"/>
<path d="M1312 638 c-15 -15 -16 -38 -2 -38 6 0 13 7 16 15 9 21 34 19 34 -4
0 -12 -9 -21 -25 -25 -25 -6 -42 -43 -32 -70 6 -16 94 -19 103 -4 3 4 0 8 -5
8 -7 0 -11 22 -11 53 0 57 -12 77 -45 77 -12 0 -26 -5 -33 -12z m48 -86 c0
-26 -11 -34 -27 -21 -10 9 -10 15 -2 25 16 19 29 17 29 -4z"/>
<path d="M1439 645 c0 0 -1 -33 -2 -73 -2 -66 0 -72 18 -72 18 0 20 7 20 63 0
48 3 62 15 62 12 0 15 -14 15 -62 0 -60 1 -63 23 -63 19 0 23 4 16 18 -7 16
-11 51 -13 109 -1 20 -6 22 -46 21 -25 -1 -45 -2 -46 -3z"/>
</g>
</svg>
