<?xml version="1.0" standalone="no"?>
<!DOCTYPE svg PUBLIC "-//W3C//DTD SVG 20010904//EN"
 "http://www.w3.org/TR/2001/REC-SVG-20010904/DTD/svg10.dtd">
<svg version="1.0" xmlns="http://www.w3.org/2000/svg"
 width="394.000000pt" height="128.000000pt" viewBox="0 0 394.000000 128.000000"
 preserveAspectRatio="xMidYMid meet">

<g transform="translate(0.000000,128.000000) scale(0.100000,-0.100000)"
fill="#4F5665" stroke="none">
<path d="M27 1265 c40 -17 39 -15 153 -294 52 -128 99 -234 104 -235 5 0 53
105 106 234 116 282 113 277 153 294 31 14 29 14 -53 15 -68 0 -81 -2 -62 -11
14 -7 22 -20 22 -37 0 -28 -139 -401 -149 -401 -10 0 -151 377 -151 403 0 15
8 28 23 35 17 8 1 11 -78 11 -94 0 -98 -1 -68 -14z"/>
<path d="M3517 1254 c-12 -13 -8 -42 8 -48 20 -7 19 -30 -2 -64 l-17 -27 21
18 c46 39 57 119 18 125 -12 2 -24 0 -28 -4z"/>
<path d="M644 1185 l26 -24 0 -191 0 -191 -26 -24 -27 -25 84 0 c76 1 82 2 60
14 -14 8 -28 22 -32 32 -4 11 -8 98 -8 194 0 96 4 183 8 194 4 10 18 24 32 32
22 12 16 13 -60 14 l-84 0 27 -25z"/>
<path d="M1037 1196 c-191 -68 -206 -357 -24 -445 51 -25 150 -28 201 -7 36
15 76 60 76 85 -1 10 -6 6 -16 -11 -31 -58 -148 -87 -213 -54 -65 34 -121 136
-121 221 0 53 28 129 57 157 36 34 73 48 130 48 61 0 110 -25 133 -69 l20 -36
-3 50 c-2 47 -4 51 -37 62 -47 16 -156 15 -203 -1z"/>
<path d="M1370 1158 l1 -53 13 31 c16 37 32 44 97 44 l49 0 0 -205 0 -205 -32
-20 -33 -20 95 0 c74 1 91 3 75 12 -43 23 -45 34 -45 240 l0 199 62 -3 c58 -3
64 -5 85 -37 l23 -34 0 52 0 51 -195 0 -195 0 0 -52z"/>
<path d="M1955 1196 c-88 -38 -145 -129 -145 -231 1 -139 98 -235 240 -235 72
0 123 19 168 63 122 117 97 318 -49 391 -60 30 -161 35 -214 12z m183 -33
c137 -101 128 -357 -15 -404 -19 -6 -57 -9 -84 -7 -101 10 -169 103 -169 233
0 136 67 209 183 202 37 -2 67 -10 85 -24z"/>
<path d="M2404 1185 l26 -24 0 -191 c0 -189 0 -191 -25 -215 l-24 -25 82 0 82
0 -30 24 c-28 23 -30 28 -34 110 -3 83 -2 86 19 86 38 0 57 -18 115 -110 31
-50 65 -95 75 -100 10 -6 38 -10 62 -10 l43 0 -34 17 c-22 11 -49 41 -79 87
-25 39 -56 83 -70 98 l-24 26 31 17 c71 36 93 130 44 185 -34 38 -79 49 -197
50 l-89 0 27 -25z m196 -24 c31 -23 46 -71 34 -112 -12 -42 -49 -67 -104 -71
l-45 -3 -3 94 c-1 52 0 101 3 109 7 19 80 9 115 -17z"/>
<path d="M2867 1198 c35 -17 43 -60 43 -228 0 -168 -8 -211 -43 -228 -18 -8
-5 -11 60 -11 l82 -1 -24 25 c-25 24 -25 26 -25 215 l0 191 26 24 27 25 -84
-1 c-67 0 -79 -3 -62 -11z"/>
<path d="M3241 1032 c-91 -249 -96 -259 -133 -282 l-33 -20 85 0 c81 1 84 1
58 16 -33 17 -34 37 -9 109 l18 50 77 0 78 0 19 -50 c26 -67 25 -99 -3 -113
-19 -8 -5 -11 67 -11 l90 -1 -31 19 c-34 21 -45 43 -143 301 -33 85 -63 156
-68 157 -4 2 -37 -77 -72 -175z m123 -79 c7 -22 5 -23 -58 -23 -36 0 -66 4
-66 8 0 8 41 135 56 172 5 13 41 -71 68 -157z"/>
<path d="M3738 1194 c-35 -18 -48 -43 -48 -90 0 -51 30 -94 99 -143 76 -53
101 -85 101 -128 0 -105 -151 -112 -196 -9 l-13 31 -1 -52 c0 -48 2 -52 31
-62 77 -27 181 -4 207 46 37 70 17 134 -62 194 -125 96 -126 97 -126 139 0 46
26 70 78 70 45 0 71 -16 87 -53 l14 -32 1 46 c0 40 -3 48 -22 53 -41 11 -122
6 -150 -10z"/>
<path d="M792 540 c-31 -14 -47 -29 -57 -54 -36 -85 -2 -148 126 -234 25 -17
60 -47 77 -67 54 -61 38 -131 -34 -155 -71 -24 -141 10 -175 84 l-19 41 0 -62
c0 -59 1 -61 31 -72 127 -44 249 -7 269 82 18 80 -16 135 -139 220 -113 80
-138 131 -87 182 56 56 142 37 177 -38 l19 -42 0 56 0 56 -39 11 c-55 17 -100
14 -149 -8z"/>
<path d="M1700 481 c-112 -34 -174 -118 -175 -236 0 -128 66 -212 188 -237 77
-16 140 0 185 47 17 19 32 40 32 46 0 6 -15 -5 -33 -24 -30 -33 -87 -57 -132
-57 -39 1 -104 39 -133 79 -78 107 -64 276 27 338 42 29 109 38 158 23 47 -15
71 -36 88 -75 13 -30 13 -30 14 22 l1 52 -52 16 c-54 16 -126 18 -168 6z"/>
<path d="M1130 473 c36 -13 40 -33 40 -228 0 -195 -4 -215 -40 -228 -8 -3 56
-6 143 -6 l157 -1 0 51 c0 31 -4 48 -10 44 -5 -3 -10 -12 -10 -20 0 -7 -12
-23 -27 -35 -21 -17 -38 -20 -82 -18 -70 4 -81 21 -81 131 l0 78 62 -3 c55 -3
64 -6 75 -28 11 -23 13 -19 12 40 0 48 -3 59 -9 43 -11 -26 -41 -36 -96 -31
l-39 3 0 95 0 95 54 3 c76 4 98 -3 121 -41 l20 -32 0 48 0 47 -152 -1 c-84 0
-146 -3 -138 -6z"/>
<path d="M2045 455 c25 -24 25 -26 25 -205 0 -189 -5 -214 -43 -230 -15 -6 6
-9 68 -9 62 0 83 3 68 9 -34 14 -43 42 -43 129 0 71 2 81 18 81 31 0 59 -28
116 -118 32 -52 66 -93 81 -100 32 -15 72 -15 80 -2 3 6 0 10 -7 10 -20 0 -69
55 -113 125 -20 33 -47 68 -58 77 -18 15 -19 18 -5 18 9 0 32 15 51 33 43 40
55 89 34 139 -22 53 -64 68 -191 68 l-105 0 24 -25z m199 -24 c31 -29 39 -74
22 -115 -19 -45 -52 -66 -103 -66 l-43 0 0 106 0 107 50 -5 c34 -3 59 -13 74
-27z"/>
<path d="M2490 473 c36 -13 40 -33 40 -228 0 -195 -4 -215 -40 -228 -8 -3 56
-6 143 -6 l157 -1 0 45 c0 25 -4 45 -10 45 -5 0 -10 -6 -10 -14 0 -30 -50 -56
-106 -56 -72 0 -84 18 -84 128 l0 83 62 -3 c55 -3 64 -6 75 -28 11 -23 13 -19
12 40 0 48 -3 59 -9 43 -10 -24 -55 -37 -106 -31 l-29 3 -3 98 -3 97 66 0 c76
0 98 -9 119 -48 l15 -27 1 48 0 47 -152 -1 c-84 0 -146 -3 -138 -6z"/>
<path d="M2891 428 c1 -29 4 -43 6 -31 8 40 51 64 107 61 l51 -3 3 -175 c3
-200 -4 -243 -46 -258 -21 -8 -7 -10 68 -11 64 0 88 3 73 9 -39 16 -43 40 -43
244 l0 196 44 0 c63 0 94 -14 110 -52 l14 -33 1 53 1 52 -195 0 -195 0 1 -52z"/>
</g>
</svg>
