<svg id="svg" version="1.1" xmlns="http://www.w3.org/2000/svg"
     xmlns:xlink="http://www.w3.org/1999/xlink" width="70"
     height="71" viewBox="0, 0, 400,409.009009009009">
  <g id="svgg">
    <path id="path0"
          d="M196.200 46.269 C 190.571 46.495,181.904 47.256,180.985 47.606 C 180.465 47.803,178.456 48.161,176.520 48.402 C 174.584 48.642,172.280 49.085,171.400 49.386 C 170.520 49.687,168.611 50.129,167.158 50.368 C 165.705 50.607,163.995 51.055,163.358 51.364 C 162.721 51.672,161.390 52.053,160.400 52.210 C 159.410 52.367,157.932 52.834,157.116 53.248 C 156.300 53.662,155.217 54.000,154.710 54.000 C 154.203 54.000,153.161 54.332,152.394 54.739 C 151.627 55.145,150.460 55.602,149.800 55.755 C 148.643 56.023,148.063 56.268,143.160 58.555 C 141.928 59.130,140.645 59.600,140.309 59.600 C 139.973 59.600,139.482 59.861,139.217 60.180 C 138.952 60.498,138.075 60.971,137.268 61.230 C 136.461 61.489,135.530 61.927,135.200 62.203 C 134.870 62.479,134.150 62.838,133.600 63.000 C 133.050 63.162,132.330 63.525,132.000 63.807 C 131.670 64.090,130.770 64.618,130.000 64.982 C 127.926 65.961,126.032 67.051,125.272 67.702 C 124.903 68.019,124.330 68.374,124.000 68.490 C 123.100 68.808,117.107 72.807,114.826 74.611 C 114.262 75.057,112.990 75.948,112.000 76.590 C 111.010 77.233,110.020 77.965,109.800 78.217 C 109.580 78.469,107.600 80.156,105.400 81.965 C 99.067 87.171,93.281 92.969,87.400 100.000 C 85.640 102.105,83.971 104.090,83.692 104.413 C 82.744 105.508,78.510 111.383,77.090 113.574 C 76.601 114.330,75.890 115.410,75.511 115.974 C 75.132 116.538,74.446 117.630,73.985 118.400 C 73.524 119.170,72.713 120.520,72.183 121.400 C 70.283 124.556,68.024 128.936,65.583 134.200 C 65.175 135.080,64.382 136.780,63.821 137.979 C 63.259 139.177,62.800 140.387,62.800 140.669 C 62.800 140.950,62.441 141.770,62.001 142.490 C 61.562 143.211,61.202 144.160,61.200 144.600 C 61.198 145.040,60.859 145.955,60.445 146.633 C 60.031 147.312,59.559 148.661,59.395 149.631 C 59.231 150.602,58.760 152.024,58.348 152.792 C 57.937 153.560,57.596 154.731,57.591 155.394 C 57.586 156.057,57.241 157.352,56.824 158.271 C 56.406 159.191,55.935 160.991,55.776 162.271 C 55.618 163.552,55.233 165.320,54.920 166.200 C 54.608 167.080,54.176 169.330,53.961 171.200 C 53.746 173.070,53.291 175.674,52.951 176.987 C 51.448 182.791,51.621 213.101,53.195 219.664 C 53.635 221.499,53.996 223.764,53.997 224.698 C 53.999 225.633,54.345 227.433,54.767 228.698 C 55.188 229.964,55.650 231.900,55.792 233.000 C 55.934 234.100,56.399 235.952,56.825 237.115 C 57.251 238.278,57.600 239.635,57.600 240.130 C 57.600 240.626,57.935 241.689,58.345 242.493 C 58.755 243.296,59.201 244.640,59.335 245.477 C 59.470 246.315,59.945 247.713,60.390 248.585 C 60.836 249.456,61.200 250.515,61.200 250.937 C 61.200 251.360,61.538 252.267,61.951 252.953 C 62.365 253.639,62.930 254.920,63.208 255.800 C 63.486 256.680,63.958 257.755,64.257 258.189 C 64.556 258.623,64.800 259.274,64.800 259.635 C 64.800 259.996,65.133 260.721,65.539 261.246 C 65.945 261.771,66.407 262.726,66.564 263.368 C 66.721 264.011,67.198 264.980,67.625 265.522 C 68.051 266.064,68.400 266.822,68.400 267.205 C 68.400 267.588,68.672 268.128,69.005 268.404 C 69.337 268.680,69.968 269.647,70.406 270.553 C 70.844 271.459,71.640 272.920,72.175 273.800 C 72.709 274.680,73.523 276.030,73.984 276.800 C 74.444 277.570,75.184 278.806,75.628 279.546 C 76.072 280.287,76.698 281.155,77.018 281.475 C 77.338 281.795,77.600 282.211,77.600 282.400 C 77.600 282.589,77.849 282.992,78.154 283.297 C 79.747 284.890,80.482 287.219,79.828 288.598 C 79.482 289.326,79.200 290.219,79.200 290.582 C 79.200 290.946,78.860 291.999,78.445 292.922 C 78.030 293.845,77.558 295.230,77.396 296.000 C 77.235 296.770,76.764 298.068,76.351 298.884 C 75.938 299.700,75.600 300.745,75.600 301.206 C 75.600 301.667,75.260 302.799,74.845 303.722 C 74.430 304.645,73.959 306.030,73.797 306.800 C 73.636 307.570,73.225 308.740,72.884 309.400 C 72.544 310.060,72.124 311.230,71.952 312.000 C 71.535 313.868,70.083 318.260,69.308 320.000 C 68.965 320.770,68.542 322.030,68.368 322.800 C 68.049 324.212,66.665 328.381,65.778 330.600 C 64.680 333.347,64.680 338.303,65.778 339.022 C 66.989 339.816,71.378 340.281,72.093 339.692 C 72.372 339.462,73.590 338.999,74.800 338.663 C 76.787 338.112,78.698 337.503,82.200 336.306 C 82.860 336.080,84.480 335.587,85.800 335.209 C 87.120 334.832,88.869 334.225,89.687 333.862 C 90.505 333.498,91.585 333.194,92.087 333.186 C 92.589 333.179,93.720 332.825,94.600 332.400 C 95.480 331.975,96.615 331.621,97.122 331.614 C 97.629 331.606,98.867 331.225,99.874 330.766 C 100.880 330.308,102.355 329.829,103.152 329.703 C 103.948 329.577,104.960 329.242,105.400 328.959 C 105.840 328.676,107.100 328.248,108.200 328.008 C 109.300 327.769,110.748 327.318,111.418 327.006 C 112.088 326.695,113.521 326.242,114.602 326.000 C 115.683 325.757,116.755 325.404,116.984 325.215 C 118.021 324.359,120.212 324.337,121.274 325.172 C 121.853 325.628,122.501 326.000,122.714 326.000 C 122.927 326.000,123.347 326.295,123.645 326.655 C 123.944 327.015,124.911 327.647,125.794 328.060 C 126.677 328.474,128.120 329.239,129.000 329.762 C 131.520 331.260,142.664 336.800,143.156 336.800 C 143.400 336.800,144.455 337.233,145.500 337.761 C 146.545 338.290,148.030 338.937,148.800 339.200 C 149.570 339.462,151.370 340.124,152.800 340.669 C 154.230 341.215,156.410 341.916,157.645 342.226 C 158.880 342.537,160.410 343.062,161.045 343.393 C 161.680 343.724,162.684 343.996,163.275 343.998 C 163.867 343.999,165.757 344.430,167.475 344.956 C 171.597 346.217,176.182 347.046,187.000 348.488 C 194.633 349.506,211.816 349.731,216.800 348.878 C 218.230 348.634,221.290 348.236,223.600 347.994 C 225.910 347.752,228.700 347.372,229.800 347.148 C 230.900 346.924,232.880 346.555,234.200 346.326 C 235.520 346.098,238.006 345.481,239.725 344.956 C 241.443 344.430,243.333 343.999,243.925 343.998 C 244.516 343.996,245.536 343.715,246.192 343.374 C 246.847 343.032,248.227 342.571,249.258 342.350 C 250.289 342.129,251.816 341.600,252.651 341.174 C 253.486 340.748,254.498 340.400,254.901 340.400 C 255.303 340.400,256.338 340.040,257.200 339.600 C 258.062 339.160,259.000 338.798,259.284 338.796 C 259.568 338.794,260.700 338.350,261.800 337.809 C 262.900 337.268,263.942 336.819,264.117 336.813 C 264.531 336.796,276.132 330.991,278.200 329.765 C 279.080 329.244,280.430 328.498,281.200 328.108 C 281.970 327.719,282.949 327.085,283.375 326.700 C 283.802 326.315,284.289 326.000,284.458 326.000 C 284.772 326.000,287.164 324.510,288.600 323.421 C 289.040 323.087,291.740 321.079,294.600 318.958 C 303.634 312.259,314.116 302.342,319.923 295.000 C 321.489 293.020,323.139 290.950,323.589 290.400 C 325.166 288.474,326.400 286.641,326.402 286.222 C 326.403 285.990,327.168 284.955,328.102 283.922 C 330.334 281.454,331.600 279.769,331.600 279.267 C 331.600 279.044,332.005 278.351,332.500 277.728 C 333.647 276.282,334.212 275.387,335.229 273.400 C 336.398 271.118,337.302 269.549,338.103 268.411 C 338.487 267.867,338.800 267.175,338.800 266.873 C 338.800 266.571,339.136 265.846,339.548 265.262 C 339.959 264.678,340.432 263.750,340.600 263.200 C 340.768 262.650,341.241 261.722,341.652 261.138 C 342.064 260.554,342.400 259.799,342.400 259.459 C 342.400 259.120,342.850 257.996,343.400 256.962 C 343.950 255.927,344.400 254.842,344.400 254.550 C 344.400 254.258,344.759 253.430,345.199 252.710 C 345.638 251.989,345.999 251.040,346.002 250.600 C 346.005 250.160,346.450 248.900,346.991 247.800 C 347.532 246.700,347.981 245.388,347.987 244.884 C 347.994 244.380,348.334 243.300,348.743 242.484 C 349.152 241.668,349.599 240.142,349.736 239.093 C 349.874 238.044,350.243 236.691,350.556 236.085 C 350.869 235.479,351.412 233.457,351.761 231.592 C 352.111 229.726,352.571 227.300,352.785 226.200 C 353.152 224.311,354.007 219.001,354.878 213.200 C 355.520 208.927,355.026 180.732,354.259 177.811 C 353.913 176.498,353.519 174.158,353.383 172.611 C 353.246 171.065,352.885 168.990,352.580 168.000 C 352.275 167.010,351.834 164.940,351.599 163.400 C 351.364 161.860,350.916 160.049,350.603 159.375 C 350.290 158.701,349.911 157.351,349.760 156.375 C 349.610 155.399,349.178 153.970,348.800 153.200 C 348.422 152.430,348.002 151.080,347.866 150.200 C 347.730 149.320,347.255 147.887,346.810 147.015 C 346.364 146.144,345.999 145.064,345.997 144.615 C 345.996 144.167,345.637 143.260,345.200 142.600 C 344.763 141.940,344.404 141.164,344.403 140.875 C 344.399 140.180,342.984 137.100,339.265 129.697 C 335.424 122.049,335.021 121.307,334.237 120.441 C 333.887 120.054,333.600 119.590,333.600 119.410 C 333.600 119.230,332.970 118.119,332.200 116.941 C 331.430 115.764,330.140 113.765,329.332 112.500 C 328.525 111.235,327.670 110.020,327.432 109.800 C 327.194 109.580,326.497 108.627,325.882 107.682 C 325.268 106.738,323.372 104.308,321.668 102.282 C 319.965 100.257,318.127 98.062,317.585 97.404 C 313.052 91.902,298.805 79.016,292.593 74.800 C 291.782 74.250,290.770 73.478,290.344 73.084 C 289.917 72.690,289.170 72.193,288.684 71.979 C 288.198 71.765,286.810 70.873,285.600 69.996 C 284.390 69.119,283.197 68.401,282.949 68.401 C 282.701 68.400,282.289 68.148,282.033 67.840 C 281.777 67.532,280.270 66.612,278.684 65.796 C 277.098 64.980,274.900 63.802,273.800 63.179 C 272.700 62.555,271.530 61.923,271.200 61.773 C 270.870 61.623,269.430 60.975,268.000 60.333 C 266.570 59.690,264.734 58.812,263.921 58.382 C 263.107 57.952,262.207 57.599,261.921 57.598 C 261.634 57.596,260.860 57.308,260.200 56.957 C 259.540 56.606,258.102 56.047,257.005 55.716 C 255.908 55.384,254.653 54.862,254.216 54.556 C 253.779 54.250,253.005 54.000,252.495 54.000 C 251.985 54.000,250.900 53.662,250.084 53.248 C 249.268 52.834,247.790 52.366,246.800 52.207 C 245.810 52.047,244.456 51.665,243.790 51.356 C 243.125 51.047,241.094 50.533,239.279 50.214 C 237.463 49.895,235.763 49.501,235.501 49.339 C 235.238 49.176,232.948 48.723,230.412 48.332 C 227.875 47.940,224.810 47.447,223.600 47.237 C 222.390 47.027,217.755 46.663,213.300 46.428 C 205.667 46.025,202.926 45.999,196.200 46.269 M156.206 116.440 C 157.975 117.372,160.395 119.525,160.409 120.178 C 160.414 120.410,160.770 121.050,161.200 121.600 C 161.630 122.150,161.988 122.870,161.995 123.200 C 162.002 123.530,162.450 124.700,162.991 125.800 C 163.532 126.900,163.981 128.034,163.987 128.321 C 163.994 128.607,164.340 129.507,164.756 130.321 C 166.496 133.726,167.601 136.327,167.609 137.040 C 167.614 137.458,167.970 138.250,168.400 138.800 C 168.830 139.350,169.186 140.123,169.191 140.518 C 169.196 140.913,169.650 142.082,170.200 143.115 C 170.750 144.148,171.201 145.265,171.201 145.597 C 171.202 145.929,171.562 146.789,172.001 147.510 C 172.441 148.230,172.800 149.105,172.800 149.455 C 172.800 149.805,173.148 150.746,173.573 151.546 C 176.757 157.534,177.567 162.625,175.732 165.108 C 175.281 165.717,174.771 166.662,174.598 167.208 C 174.306 168.127,167.839 176.375,165.168 179.234 C 162.377 182.222,162.000 182.844,162.000 184.457 C 162.000 186.069,162.480 187.338,163.463 188.320 C 163.758 188.616,164.000 189.194,164.000 189.605 C 164.000 190.016,164.176 190.461,164.390 190.594 C 164.876 190.894,167.600 194.969,167.600 195.394 C 167.600 195.566,167.915 196.000,168.300 196.359 C 168.685 196.718,169.180 197.297,169.400 197.646 C 174.718 206.082,188.867 220.783,196.446 225.748 C 197.162 226.216,198.142 226.870,198.625 227.200 C 199.107 227.530,200.488 228.475,201.692 229.300 C 202.897 230.125,204.074 230.800,204.308 230.800 C 204.542 230.800,204.793 230.965,204.867 231.168 C 205.078 231.750,216.256 237.602,218.264 238.182 C 218.739 238.319,219.346 238.694,219.613 239.015 C 219.880 239.337,220.481 239.601,220.949 239.601 C 221.417 239.602,222.430 239.988,223.200 240.460 C 224.126 241.026,225.520 241.383,227.317 241.513 L 230.033 241.710 232.979 238.687 C 234.599 237.024,236.076 235.398,236.262 235.072 C 236.448 234.746,237.363 233.607,238.296 232.540 C 239.961 230.636,245.945 223.003,247.277 221.085 C 247.650 220.548,248.804 219.710,249.841 219.223 L 251.727 218.336 254.764 219.355 C 258.768 220.700,262.355 222.195,262.912 222.752 C 263.158 222.998,263.549 223.201,263.780 223.202 C 264.011 223.202,265.280 223.742,266.600 224.400 C 267.920 225.058,269.225 225.598,269.500 225.598 C 269.775 225.599,270.000 225.768,270.000 225.973 C 270.000 226.178,270.405 226.466,270.900 226.612 C 271.790 226.876,279.640 230.557,280.800 231.255 C 281.130 231.454,282.030 231.898,282.800 232.242 C 285.992 233.668,288.428 234.922,288.625 235.240 C 288.740 235.426,289.501 235.760,290.317 235.983 C 291.133 236.206,292.610 237.089,293.600 237.947 L 295.400 239.506 295.522 243.253 C 295.777 251.092,293.798 259.250,290.343 264.608 C 288.520 267.435,278.584 275.587,276.949 275.597 C 276.701 275.599,276.282 275.861,276.017 276.180 C 275.752 276.498,274.875 276.971,274.068 277.230 C 273.261 277.489,272.318 277.946,271.974 278.246 C 271.629 278.545,270.729 278.907,269.974 279.050 C 269.218 279.193,268.309 279.561,267.953 279.869 C 267.598 280.176,266.158 280.610,264.753 280.833 C 263.349 281.057,261.345 281.491,260.300 281.798 C 257.193 282.712,250.267 282.949,246.800 282.260 C 241.510 281.209,238.236 280.413,236.800 279.830 C 236.030 279.517,234.801 279.159,234.068 279.034 C 233.336 278.909,232.166 278.557,231.468 278.251 C 229.927 277.575,225.555 276.111,223.491 275.580 C 222.661 275.367,221.314 274.834,220.497 274.396 C 219.680 273.958,218.739 273.594,218.406 273.586 C 218.073 273.579,217.080 273.225,216.200 272.800 C 215.320 272.375,214.330 272.019,214.000 272.010 C 213.670 272.000,212.500 271.550,211.400 271.009 C 210.300 270.468,209.166 270.019,208.879 270.013 C 208.593 270.006,207.693 269.656,206.879 269.235 C 206.066 268.814,203.330 267.454,200.800 266.212 C 198.270 264.970,195.480 263.526,194.600 263.002 C 193.720 262.478,192.235 261.658,191.300 261.180 C 190.365 260.703,189.600 260.185,189.600 260.030 C 189.600 259.875,189.015 259.446,188.300 259.077 C 186.439 258.115,185.691 257.613,183.275 255.700 C 182.093 254.765,181.008 254.000,180.863 254.000 C 180.718 253.999,180.116 253.582,179.524 253.073 C 178.932 252.564,177.963 251.799,177.370 251.374 C 176.777 250.948,175.811 250.150,175.222 249.600 C 174.633 249.050,173.658 248.240,173.056 247.800 C 168.787 244.684,156.647 232.586,151.380 226.200 C 150.291 224.880,149.040 223.407,148.600 222.928 C 147.331 221.547,146.746 220.819,144.321 217.614 C 143.067 215.956,141.797 214.330,141.498 214.000 C 141.199 213.670,140.292 212.410,139.483 211.200 C 138.675 209.990,137.473 208.280,136.813 207.400 C 136.154 206.520,135.490 205.530,135.339 205.200 C 135.188 204.870,134.689 204.138,134.232 203.574 C 132.482 201.418,130.000 197.704,130.000 197.244 C 130.000 197.068,129.645 196.602,129.210 196.209 C 128.776 195.816,128.302 195.113,128.158 194.647 C 128.013 194.181,127.582 193.350,127.199 192.800 C 125.573 190.463,120.801 180.419,120.797 179.325 C 120.796 178.926,120.437 178.060,120.000 177.400 C 119.563 176.740,119.200 175.660,119.194 175.000 C 119.188 174.340,118.821 173.004,118.380 172.031 C 116.083 166.969,116.081 148.636,118.377 143.576 C 118.820 142.599,119.186 141.439,119.191 140.999 C 119.222 138.201,125.981 127.615,130.888 122.678 C 135.474 118.064,137.023 117.134,142.200 115.886 C 144.894 115.236,154.654 115.622,156.206 116.440 "
          stroke="none" fill="#ED1C2E" fill-rule="evenodd"></path>
    <path id="path1"
          d="M0.000 204.400 L 0.000 408.800 200.000 408.800 L 400.000 408.800 400.000 204.400 L 400.000 0.000 200.000 0.000 L 0.000 0.000 0.000 204.400 M213.300 46.428 C 217.755 46.663,222.390 47.027,223.600 47.237 C 224.810 47.447,227.875 47.940,230.412 48.332 C 232.948 48.723,235.238 49.176,235.501 49.339 C 235.763 49.501,237.463 49.895,239.279 50.214 C 241.094 50.533,243.125 51.047,243.790 51.356 C 244.456 51.665,245.810 52.047,246.800 52.207 C 247.790 52.366,249.268 52.834,250.084 53.248 C 250.900 53.662,251.985 54.000,252.495 54.000 C 253.005 54.000,253.779 54.250,254.216 54.556 C 254.653 54.862,255.908 55.384,257.005 55.716 C 258.102 56.047,259.540 56.606,260.200 56.957 C 260.860 57.308,261.634 57.596,261.921 57.598 C 262.207 57.599,263.107 57.952,263.921 58.382 C 264.734 58.812,266.570 59.690,268.000 60.333 C 269.430 60.975,270.870 61.623,271.200 61.773 C 271.530 61.923,272.700 62.555,273.800 63.179 C 274.900 63.802,277.098 64.980,278.684 65.796 C 280.270 66.612,281.777 67.532,282.033 67.840 C 282.289 68.148,282.701 68.400,282.949 68.401 C 283.197 68.401,284.390 69.119,285.600 69.996 C 286.810 70.873,288.198 71.765,288.684 71.979 C 289.170 72.193,289.917 72.690,290.344 73.084 C 290.770 73.478,291.782 74.250,292.593 74.800 C 298.805 79.016,313.052 91.902,317.585 97.404 C 318.127 98.062,319.965 100.257,321.668 102.282 C 323.372 104.308,325.268 106.738,325.882 107.682 C 326.497 108.627,327.194 109.580,327.432 109.800 C 327.670 110.020,328.525 111.235,329.332 112.500 C 330.140 113.765,331.430 115.764,332.200 116.941 C 332.970 118.119,333.600 119.230,333.600 119.410 C 333.600 119.590,333.887 120.054,334.237 120.441 C 335.021 121.307,335.424 122.049,339.265 129.697 C 342.984 137.100,344.399 140.180,344.403 140.875 C 344.404 141.164,344.763 141.940,345.200 142.600 C 345.637 143.260,345.996 144.167,345.997 144.615 C 345.999 145.064,346.364 146.144,346.810 147.015 C 347.255 147.887,347.730 149.320,347.866 150.200 C 348.002 151.080,348.422 152.430,348.800 153.200 C 349.178 153.970,349.610 155.399,349.760 156.375 C 349.911 157.351,350.290 158.701,350.603 159.375 C 350.916 160.049,351.364 161.860,351.599 163.400 C 351.834 164.940,352.275 167.010,352.580 168.000 C 352.885 168.990,353.246 171.065,353.383 172.611 C 353.519 174.158,353.913 176.498,354.259 177.811 C 355.026 180.732,355.520 208.927,354.878 213.200 C 354.007 219.001,353.152 224.311,352.785 226.200 C 352.571 227.300,352.111 229.726,351.761 231.592 C 351.412 233.457,350.869 235.479,350.556 236.085 C 350.243 236.691,349.874 238.044,349.736 239.093 C 349.599 240.142,349.152 241.668,348.743 242.484 C 348.334 243.300,347.994 244.380,347.987 244.884 C 347.981 245.388,347.532 246.700,346.991 247.800 C 346.450 248.900,346.005 250.160,346.002 250.600 C 345.999 251.040,345.638 251.989,345.199 252.710 C 344.759 253.430,344.400 254.258,344.400 254.550 C 344.400 254.842,343.950 255.927,343.400 256.962 C 342.850 257.996,342.400 259.120,342.400 259.459 C 342.400 259.799,342.064 260.554,341.652 261.138 C 341.241 261.722,340.768 262.650,340.600 263.200 C 340.432 263.750,339.959 264.678,339.548 265.262 C 339.136 265.846,338.800 266.571,338.800 266.873 C 338.800 267.175,338.487 267.867,338.103 268.411 C 337.302 269.549,336.398 271.118,335.229 273.400 C 334.212 275.387,333.647 276.282,332.500 277.728 C 332.005 278.351,331.600 279.044,331.600 279.267 C 331.600 279.769,330.334 281.454,328.102 283.922 C 327.168 284.955,326.403 285.990,326.402 286.222 C 326.400 286.641,325.166 288.474,323.589 290.400 C 323.139 290.950,321.489 293.020,319.923 295.000 C 314.116 302.342,303.634 312.259,294.600 318.958 C 291.740 321.079,289.040 323.087,288.600 323.421 C 287.164 324.510,284.772 326.000,284.458 326.000 C 284.289 326.000,283.802 326.315,283.375 326.700 C 282.949 327.085,281.970 327.719,281.200 328.108 C 280.430 328.498,279.080 329.244,278.200 329.765 C 276.132 330.991,264.531 336.796,264.117 336.813 C 263.942 336.819,262.900 337.268,261.800 337.809 C 260.700 338.350,259.568 338.794,259.284 338.796 C 259.000 338.798,258.062 339.160,257.200 339.600 C 256.338 340.040,255.303 340.400,254.901 340.400 C 254.498 340.400,253.486 340.748,252.651 341.174 C 251.816 341.600,250.289 342.129,249.258 342.350 C 248.227 342.571,246.847 343.032,246.192 343.374 C 245.536 343.715,244.516 343.996,243.925 343.998 C 243.333 343.999,241.443 344.430,239.725 344.956 C 238.006 345.481,235.520 346.098,234.200 346.326 C 232.880 346.555,230.900 346.924,229.800 347.148 C 228.700 347.372,225.910 347.752,223.600 347.994 C 221.290 348.236,218.230 348.634,216.800 348.878 C 211.816 349.731,194.633 349.506,187.000 348.488 C 176.182 347.046,171.597 346.217,167.475 344.956 C 165.757 344.430,163.867 343.999,163.275 343.998 C 162.684 343.996,161.680 343.724,161.045 343.393 C 160.410 343.062,158.880 342.537,157.645 342.226 C 156.410 341.916,154.230 341.215,152.800 340.669 C 151.370 340.124,149.570 339.462,148.800 339.200 C 148.030 338.937,146.545 338.290,145.500 337.761 C 144.455 337.233,143.400 336.800,143.156 336.800 C 142.664 336.800,131.520 331.260,129.000 329.762 C 128.120 329.239,126.677 328.474,125.794 328.060 C 124.911 327.647,123.944 327.015,123.645 326.655 C 123.347 326.295,122.927 326.000,122.714 326.000 C 122.501 326.000,121.853 325.628,121.274 325.172 C 120.212 324.337,118.021 324.359,116.984 325.215 C 116.755 325.404,115.683 325.757,114.602 326.000 C 113.521 326.242,112.088 326.695,111.418 327.006 C 110.748 327.318,109.300 327.769,108.200 328.008 C 107.100 328.248,105.840 328.676,105.400 328.959 C 104.960 329.242,103.948 329.577,103.152 329.703 C 102.355 329.829,100.880 330.308,99.874 330.766 C 98.867 331.225,97.629 331.606,97.122 331.614 C 96.615 331.621,95.480 331.975,94.600 332.400 C 93.720 332.825,92.589 333.179,92.087 333.186 C 91.585 333.194,90.505 333.498,89.687 333.862 C 88.869 334.225,87.120 334.832,85.800 335.209 C 84.480 335.587,82.860 336.080,82.200 336.306 C 78.698 337.503,76.787 338.112,74.800 338.663 C 73.590 338.999,72.372 339.462,72.093 339.692 C 71.378 340.281,66.989 339.816,65.778 339.022 C 64.680 338.303,64.680 333.347,65.778 330.600 C 66.665 328.381,68.049 324.212,68.368 322.800 C 68.542 322.030,68.965 320.770,69.308 320.000 C 70.083 318.260,71.535 313.868,71.952 312.000 C 72.124 311.230,72.544 310.060,72.884 309.400 C 73.225 308.740,73.636 307.570,73.797 306.800 C 73.959 306.030,74.430 304.645,74.845 303.722 C 75.260 302.799,75.600 301.667,75.600 301.206 C 75.600 300.745,75.938 299.700,76.351 298.884 C 76.764 298.068,77.235 296.770,77.396 296.000 C 77.558 295.230,78.030 293.845,78.445 292.922 C 78.860 291.999,79.200 290.946,79.200 290.582 C 79.200 290.219,79.482 289.326,79.828 288.598 C 80.482 287.219,79.747 284.890,78.154 283.297 C 77.849 282.992,77.600 282.589,77.600 282.400 C 77.600 282.211,77.338 281.795,77.018 281.475 C 76.698 281.155,76.072 280.287,75.628 279.546 C 75.184 278.806,74.444 277.570,73.984 276.800 C 73.523 276.030,72.709 274.680,72.175 273.800 C 71.640 272.920,70.844 271.459,70.406 270.553 C 69.968 269.647,69.337 268.680,69.005 268.404 C 68.672 268.128,68.400 267.588,68.400 267.205 C 68.400 266.822,68.051 266.064,67.625 265.522 C 67.198 264.980,66.721 264.011,66.564 263.368 C 66.407 262.726,65.945 261.771,65.539 261.246 C 65.133 260.721,64.800 259.996,64.800 259.635 C 64.800 259.274,64.556 258.623,64.257 258.189 C 63.958 257.755,63.486 256.680,63.208 255.800 C 62.930 254.920,62.365 253.639,61.951 252.953 C 61.538 252.267,61.200 251.360,61.200 250.937 C 61.200 250.515,60.836 249.456,60.390 248.585 C 59.945 247.713,59.470 246.315,59.335 245.477 C 59.201 244.640,58.755 243.296,58.345 242.493 C 57.935 241.689,57.600 240.626,57.600 240.130 C 57.600 239.635,57.251 238.278,56.825 237.115 C 56.399 235.952,55.934 234.100,55.792 233.000 C 55.650 231.900,55.188 229.964,54.767 228.698 C 54.345 227.433,53.999 225.633,53.997 224.698 C 53.996 223.764,53.635 221.499,53.195 219.664 C 51.621 213.101,51.448 182.791,52.951 176.987 C 53.291 175.674,53.746 173.070,53.961 171.200 C 54.176 169.330,54.608 167.080,54.920 166.200 C 55.233 165.320,55.618 163.552,55.776 162.271 C 55.935 160.991,56.406 159.191,56.824 158.271 C 57.241 157.352,57.586 156.057,57.591 155.394 C 57.596 154.731,57.937 153.560,58.348 152.792 C 58.760 152.024,59.231 150.602,59.395 149.631 C 59.559 148.661,60.031 147.312,60.445 146.633 C 60.859 145.955,61.198 145.040,61.200 144.600 C 61.202 144.160,61.562 143.211,62.001 142.490 C 62.441 141.770,62.800 140.950,62.800 140.669 C 62.800 140.387,63.259 139.177,63.821 137.979 C 64.382 136.780,65.175 135.080,65.583 134.200 C 68.024 128.936,70.283 124.556,72.183 121.400 C 72.713 120.520,73.524 119.170,73.985 118.400 C 74.446 117.630,75.132 116.538,75.511 115.974 C 75.890 115.410,76.601 114.330,77.090 113.574 C 78.510 111.383,82.744 105.508,83.692 104.413 C 83.971 104.090,85.640 102.105,87.400 100.000 C 93.281 92.969,99.067 87.171,105.400 81.965 C 107.600 80.156,109.580 78.469,109.800 78.217 C 110.020 77.965,111.010 77.233,112.000 76.590 C 112.990 75.948,114.262 75.057,114.826 74.611 C 117.107 72.807,123.100 68.808,124.000 68.490 C 124.330 68.374,124.903 68.019,125.272 67.702 C 126.032 67.051,127.926 65.961,130.000 64.982 C 130.770 64.618,131.670 64.090,132.000 63.807 C 132.330 63.525,133.050 63.162,133.600 63.000 C 134.150 62.838,134.870 62.479,135.200 62.203 C 135.530 61.927,136.461 61.489,137.268 61.230 C 138.075 60.971,138.952 60.498,139.217 60.180 C 139.482 59.861,139.973 59.600,140.309 59.600 C 140.645 59.600,141.928 59.130,143.160 58.555 C 148.063 56.268,148.643 56.023,149.800 55.755 C 150.460 55.602,151.627 55.145,152.394 54.739 C 153.161 54.332,154.203 54.000,154.710 54.000 C 155.217 54.000,156.300 53.662,157.116 53.248 C 157.932 52.834,159.410 52.367,160.400 52.210 C 161.390 52.053,162.721 51.672,163.358 51.364 C 163.995 51.055,165.705 50.607,167.158 50.368 C 168.611 50.129,170.520 49.687,171.400 49.386 C 172.280 49.085,174.584 48.642,176.520 48.402 C 178.456 48.161,180.465 47.803,180.985 47.606 C 181.504 47.408,184.510 47.052,187.665 46.814 C 198.749 45.978,203.439 45.907,213.300 46.428 M142.200 115.886 C 137.023 117.134,135.474 118.064,130.888 122.678 C 125.981 127.615,119.222 138.201,119.191 140.999 C 119.186 141.439,118.820 142.599,118.377 143.576 C 116.081 148.636,116.083 166.969,118.380 172.031 C 118.821 173.004,119.188 174.340,119.194 175.000 C 119.200 175.660,119.563 176.740,120.000 177.400 C 120.437 178.060,120.796 178.926,120.797 179.325 C 120.801 180.419,125.573 190.463,127.199 192.800 C 127.582 193.350,128.013 194.181,128.158 194.647 C 128.302 195.113,128.776 195.816,129.210 196.209 C 129.645 196.602,130.000 197.068,130.000 197.244 C 130.000 197.704,132.482 201.418,134.232 203.574 C 134.689 204.138,135.188 204.870,135.339 205.200 C 135.490 205.530,136.154 206.520,136.813 207.400 C 137.473 208.280,138.675 209.990,139.483 211.200 C 140.292 212.410,141.199 213.670,141.498 214.000 C 141.797 214.330,143.067 215.956,144.321 217.614 C 146.746 220.819,147.331 221.547,148.600 222.928 C 149.040 223.407,150.291 224.880,151.380 226.200 C 156.647 232.586,168.787 244.684,173.056 247.800 C 173.658 248.240,174.633 249.050,175.222 249.600 C 175.811 250.150,176.777 250.948,177.370 251.374 C 177.963 251.799,178.932 252.564,179.524 253.073 C 180.116 253.582,180.718 253.999,180.863 254.000 C 181.008 254.000,182.093 254.765,183.275 255.700 C 185.691 257.613,186.439 258.115,188.300 259.077 C 189.015 259.446,189.600 259.875,189.600 260.030 C 189.600 260.185,190.365 260.703,191.300 261.180 C 192.235 261.658,193.720 262.478,194.600 263.002 C 195.480 263.526,198.270 264.970,200.800 266.212 C 203.330 267.454,206.066 268.814,206.879 269.235 C 207.693 269.656,208.593 270.006,208.879 270.013 C 209.166 270.019,210.300 270.468,211.400 271.009 C 212.500 271.550,213.670 272.000,214.000 272.010 C 214.330 272.019,215.320 272.375,216.200 272.800 C 217.080 273.225,218.073 273.579,218.406 273.586 C 218.739 273.594,219.680 273.958,220.497 274.396 C 221.314 274.834,222.661 275.367,223.491 275.580 C 225.555 276.111,229.927 277.575,231.468 278.251 C 232.166 278.557,233.336 278.909,234.068 279.034 C 234.801 279.159,236.030 279.517,236.800 279.830 C 238.236 280.413,241.510 281.209,246.800 282.260 C 250.267 282.949,257.193 282.712,260.300 281.798 C 261.345 281.491,263.349 281.057,264.753 280.833 C 266.158 280.610,267.598 280.176,267.953 279.869 C 268.309 279.561,269.218 279.193,269.974 279.050 C 270.729 278.907,271.629 278.545,271.974 278.246 C 272.318 277.946,273.261 277.489,274.068 277.230 C 274.875 276.971,275.752 276.498,276.017 276.180 C 276.282 275.861,276.701 275.599,276.949 275.597 C 278.584 275.587,288.520 267.435,290.343 264.608 C 293.798 259.250,295.777 251.092,295.522 243.253 L 295.400 239.506 293.600 237.947 C 292.610 237.089,291.133 236.206,290.317 235.983 C 289.501 235.760,288.740 235.426,288.625 235.240 C 288.428 234.922,285.992 233.668,282.800 232.242 C 282.030 231.898,281.130 231.454,280.800 231.255 C 279.640 230.557,271.790 226.876,270.900 226.612 C 270.405 226.466,270.000 226.178,270.000 225.973 C 270.000 225.768,269.775 225.599,269.500 225.598 C 269.225 225.598,267.920 225.058,266.600 224.400 C 265.280 223.742,264.011 223.202,263.780 223.202 C 263.549 223.201,263.158 222.998,262.912 222.752 C 262.355 222.195,258.768 220.700,254.764 219.355 L 251.727 218.336 249.841 219.223 C 248.804 219.710,247.650 220.548,247.277 221.085 C 245.945 223.003,239.961 230.636,238.296 232.540 C 237.363 233.607,236.448 234.746,236.262 235.072 C 236.076 235.398,234.599 237.024,232.979 238.687 L 230.033 241.710 227.317 241.513 C 225.520 241.383,224.126 241.026,223.200 240.460 C 222.430 239.988,221.417 239.602,220.949 239.601 C 220.481 239.601,219.880 239.337,219.613 239.015 C 219.346 238.694,218.739 238.319,218.264 238.182 C 216.256 237.602,205.078 231.750,204.867 231.168 C 204.793 230.965,204.542 230.800,204.308 230.800 C 204.074 230.800,202.897 230.125,201.692 229.300 C 200.488 228.475,199.107 227.530,198.625 227.200 C 198.142 226.870,197.162 226.216,196.446 225.748 C 188.867 220.783,174.718 206.082,169.400 197.646 C 169.180 197.297,168.685 196.718,168.300 196.359 C 167.915 196.000,167.600 195.566,167.600 195.394 C 167.600 194.969,164.876 190.894,164.390 190.594 C 164.176 190.461,164.000 190.016,164.000 189.605 C 164.000 189.194,163.758 188.616,163.463 188.320 C 162.480 187.338,162.000 186.069,162.000 184.457 C 162.000 182.844,162.377 182.222,165.168 179.234 C 167.839 176.375,174.306 168.127,174.598 167.208 C 174.771 166.662,175.281 165.717,175.732 165.108 C 177.567 162.625,176.757 157.534,173.573 151.546 C 173.148 150.746,172.800 149.805,172.800 149.455 C 172.800 149.105,172.441 148.230,172.001 147.510 C 171.562 146.789,171.202 145.929,171.201 145.597 C 171.201 145.265,170.750 144.148,170.200 143.115 C 169.650 142.082,169.196 140.913,169.191 140.518 C 169.186 140.123,168.830 139.350,168.400 138.800 C 167.970 138.250,167.614 137.458,167.609 137.040 C 167.601 136.327,166.496 133.726,164.756 130.321 C 164.340 129.507,163.994 128.607,163.987 128.321 C 163.981 128.034,163.532 126.900,162.991 125.800 C 162.450 124.700,162.002 123.530,161.995 123.200 C 161.988 122.870,161.630 122.150,161.200 121.600 C 160.770 121.050,160.414 120.410,160.409 120.178 C 160.395 119.525,157.975 117.372,156.206 116.440 C 154.654 115.622,144.894 115.236,142.200 115.886 "
          stroke="none" fill="#f8f8f8" fill-rule="evenodd"></path>
  </g>
</svg>
